<svg xmlns="http://www.w3.org/2000/svg" width="25.2" height="24" viewBox="0 0 25.2 24">
  <g id="Сгруппировать_4453" data-name="Сгруппировать 4453" transform="translate(-1545 -90)">
    <path id="path" d="M23,12l-.677,9.3c-.16,2.2-.788,2.7-2.989,2.7H8.754c-2.2,0-2.829-.5-2.989-2.7L5.089,12Z" transform="translate(1543.599 88.8)" fill="#fff"/>
    <path id="path-2" data-name="path" d="M19.28,3.24l3.6,4.8a.6.6,0,0,1-.96.72l-3.6-4.8a.6.6,0,0,1,.96-.72ZM9.56,3.12a.6.6,0,0,1,.12.84l-3.6,4.8a.6.6,0,0,1-.96-.72l3.6-4.8A.6.6,0,0,1,9.56,3.12Z" transform="translate(1543.6 87)" fill="#2b2c34"/>
    <path id="path-3" data-name="path" d="M3.8,8.2a.6.6,0,0,0-.6.6v2.4a.6.6,0,0,0,.6.6H25.4a.6.6,0,0,0,.6-.6V8.8a.6.6,0,0,0-.6-.6Zm21,4.8-.677,9.3a4.2,4.2,0,0,1-4.189,3.9H9.353a4.2,4.2,0,0,1-4.189-3.9L4.487,13H3.8A1.8,1.8,0,0,1,2,11.2V8.8A1.8,1.8,0,0,1,3.8,7H25.4a1.8,1.8,0,0,1,1.8,1.8v2.4A1.8,1.8,0,0,1,25.4,13ZM5.69,13l.67,9.218A3,3,0,0,0,9.353,25H19.937a3,3,0,0,0,2.992-2.782L23.6,13Z" transform="translate(1543 87.8)" fill="#2b2c34"/>
    <path id="path-4" data-name="path" d="M3.6,8a.6.6,0,0,0-.6.6V11a.6.6,0,0,0,.6.6H25.2a.6.6,0,0,0,.6-.6V8.6a.6.6,0,0,0-.6-.6Z" transform="translate(1543.2 88)" fill="#ffc400"/>
  </g>
</svg>
