<svg xmlns="http://www.w3.org/2000/svg" width="13.58" height="13.691" viewBox="0 0 13.58 13.691">
  <g id="icon" transform="translate(-26.998 -456)">
    <path id="&#x41A;&#x43E;&#x43D;&#x442;&#x443;&#x440;_11105" data-name="&#x41A;&#x43E;&#x43D;&#x442;&#x443;&#x440; 11105" d="M35.183,471.794H31.745c-.977,0-2.812-.416-4.13-3.2a8.372,8.372,0,0,1-.014-6.163.7.7,0,0,1,.646-.432H39.38a.7.7,0,0,1,.663.476c.049.148,1.2,3.643-.037,6.131A5.606,5.606,0,0,1,35.183,471.794ZM28.748,463.4a6.72,6.72,0,0,0,.132,4.6c.732,1.546,1.75,2.4,2.865,2.4h3.438a4.238,4.238,0,0,0,3.571-2.41,7.369,7.369,0,0,0,.1-4.586Z" transform="translate(0 -2.103)"/>
    <path id="&#x41A;&#x43E;&#x43D;&#x442;&#x443;&#x440;_11106" data-name="&#x41A;&#x43E;&#x43D;&#x442;&#x443;&#x440; 11106" d="M38.2,459.2a.7.7,0,0,1-.7-.7,2.1,2.1,0,0,0-2.1-2.1h-.7a2.1,2.1,0,0,0-2.1,2.1.7.7,0,0,1-1.4,0,3.5,3.5,0,0,1,3.5-3.5h.7a3.5,3.5,0,0,1,3.5,3.5A.7.7,0,0,1,38.2,459.2Z" transform="translate(-1.264 1)"/>
    <path id="&#x41A;&#x43E;&#x43D;&#x442;&#x443;&#x440;_11107" data-name="&#x41A;&#x43E;&#x43D;&#x442;&#x443;&#x440; 11107" d="M31.9,469.5a.7.7,0,0,1-.7-.7v-2.1a.7.7,0,0,1,1.4,0v2.1A.7.7,0,0,1,31.9,469.5Z" transform="translate(-0.264 -3.305)"/>
    <path id="&#x41A;&#x43E;&#x43D;&#x442;&#x443;&#x440;_11108" data-name="&#x41A;&#x43E;&#x43D;&#x442;&#x443;&#x440; 11108" d="M40.9,469.5a.7.7,0,0,1-.7-.7v-2.1a.7.7,0,0,1,1.4,0v2.1A.7.7,0,0,1,40.9,469.5Z" transform="translate(-4.968 -3.305)"/>
  </g>
</svg>
