<svg xmlns="http://www.w3.org/2000/svg" width="20" height="20" viewBox="0 0 20 20">
  <g id="&#x421;&#x433;&#x440;&#x443;&#x43F;&#x43F;&#x438;&#x440;&#x43E;&#x432;&#x430;&#x442;&#x44C;_4499" data-name="&#x421;&#x433;&#x440;&#x443;&#x43F;&#x43F;&#x438;&#x440;&#x43E;&#x432;&#x430;&#x442;&#x44C; 4499" transform="translate(-1666 -786)">
    <path id="&#x41A;&#x43E;&#x43D;&#x442;&#x443;&#x440;_1197" data-name="&#x41A;&#x43E;&#x43D;&#x442;&#x443;&#x440; 1197" d="M12,2A10,10,0,1,0,22,12,10,10,0,0,0,12,2Zm0,18a8,8,0,1,1,8-8A8,8,0,0,1,12,20Z" transform="translate(1664 784)"/>
    <path id="&#x41A;&#x43E;&#x43D;&#x442;&#x443;&#x440;_1198" data-name="&#x41A;&#x43E;&#x43D;&#x442;&#x443;&#x440; 1198" d="M14.7,8.39l-3.78,5L9.29,11.28a1,1,0,1,0-1.58,1.23l2.43,3.11a1,1,0,0,0,1.58-.01l4.57-6a1.006,1.006,0,0,0-1.6-1.22Z" transform="translate(1664 784)"/>
  </g>
</svg>
