<svg xmlns="http://www.w3.org/2000/svg" width="20" height="20" viewBox="0 0 20 20">
  <g id="&#x421;&#x433;&#x440;&#x443;&#x43F;&#x43F;&#x438;&#x440;&#x43E;&#x432;&#x430;&#x442;&#x44C;_4497" data-name="&#x421;&#x433;&#x440;&#x443;&#x43F;&#x43F;&#x438;&#x440;&#x43E;&#x432;&#x430;&#x442;&#x44C; 4497" transform="translate(-1538 -290)">
    <path id="&#x41A;&#x43E;&#x43D;&#x442;&#x443;&#x440;_1192" data-name="&#x41A;&#x43E;&#x43D;&#x442;&#x443;&#x440; 1192" d="M12,2A10,10,0,1,0,22,12,10,10,0,0,0,12,2Zm0,18a8,8,0,1,1,8-8A8,8,0,0,1,12,20Z" transform="translate(1536 288)"/>
    <path id="&#x41A;&#x43E;&#x43D;&#x442;&#x443;&#x440;_1193" data-name="&#x41A;&#x43E;&#x43D;&#x442;&#x443;&#x440; 1193" d="M16,11H13V8a1,1,0,0,0-2,0v4a1,1,0,0,0,1,1h4a1,1,0,0,0,0-2Z" transform="translate(1536 288)"/>
  </g>
</svg>
