<svg xmlns="http://www.w3.org/2000/svg" width="32" height="32" viewBox="0 0 32 32">
  <g id="compass" transform="translate(0)">
    <path id="Path_886" data-name="Path 886" d="M19.543,8.027A16.091,16.091,0,0,0,8.028,19.542l1.816.467A14.211,14.211,0,0,1,20.01,9.844Zm0,0" transform="translate(-7.527 -7.526)"/>
    <path id="Path_887" data-name="Path 887" d="M322.431,20.009l1.816-.467A16.091,16.091,0,0,0,312.733,8.027l-.467,1.816a14.211,14.211,0,0,1,10.165,10.165Zm0,0" transform="translate(-292.749 -7.526)"/>
    <path id="Path_888" data-name="Path 888" d="M312.729,324.242a16.087,16.087,0,0,0,11.515-11.514l-1.816-.467a14.207,14.207,0,0,1-10.165,10.165Zm0,0" transform="translate(-292.745 -292.745)"/>
    <path id="Path_889" data-name="Path 889" d="M9.844,312.262l-1.816.467a16.087,16.087,0,0,0,11.515,11.514l.467-1.816A14.207,14.207,0,0,1,9.844,312.262Zm0,0" transform="translate(-7.526 -292.746)"/>
    <path id="Path_890" data-name="Path 890" d="M213.813,211a2.813,2.813,0,1,0,2.813,2.813A2.816,2.816,0,0,0,213.813,211Zm.938,3.75h-1.875v-1.875h1.875Zm0,0" transform="translate(-197.813 -197.809)"/>
    <path id="Path_891" data-name="Path 891" d="M16,0,12.4,12.4,0,16l12.4,3.6L16,32l3.6-12.4L32,16,19.6,12.4Zm0,20.687A4.688,4.688,0,1,1,20.687,16,4.693,4.693,0,0,1,16,20.687Zm0,0"/>
    <path id="Path_892" data-name="Path 892" d="M331.184,107.509l2.528-5.055-5.056,2.527.571,1.957Zm0,0" transform="translate(-308.116 -96.05)"/>
    <path id="Path_893" data-name="Path 893" d="M329.231,329.231l-.571,1.957,5.055,2.528-2.528-5.055Zm0,0" transform="translate(-308.119 -308.119)"/>
    <path id="Path_894" data-name="Path 894" d="M104.981,328.66l-2.528,5.055,5.055-2.528-.571-1.956Zm0,0" transform="translate(-96.05 -308.119)"/>
    <path id="Path_895" data-name="Path 895" d="M106.937,106.937l.571-1.957-5.056-2.527,2.528,5.055Zm0,0" transform="translate(-96.05 -96.05)"/>
  </g>
</svg>
