<svg xmlns="http://www.w3.org/2000/svg" width="18" height="21" viewBox="0 0 18 21">
  <g id="&#x421;&#x433;&#x440;&#x443;&#x43F;&#x43F;&#x438;&#x440;&#x43E;&#x432;&#x430;&#x442;&#x44C;_4488" data-name="&#x421;&#x433;&#x440;&#x443;&#x43F;&#x43F;&#x438;&#x440;&#x43E;&#x432;&#x430;&#x442;&#x44C; 4488" transform="translate(-603 -95)">
    <path id="&#x41A;&#x43E;&#x43D;&#x442;&#x443;&#x440;_11090" data-name="&#x41A;&#x43E;&#x43D;&#x442;&#x443;&#x440; 11090" d="M619,102H605a1,1,0,0,0-1,1v9a4,4,0,0,0,4,4h8a4,4,0,0,0,4-4v-9A1,1,0,0,0,619,102Zm-1,10a2,2,0,0,1-2,2h-8a2,2,0,0,1-2-2v-8h12Z"/>
    <path id="&#x41A;&#x43E;&#x43D;&#x442;&#x443;&#x440;_11094" data-name="&#x41A;&#x43E;&#x43D;&#x442;&#x443;&#x440; 11094" d="M620,99h-4v-.714A2.288,2.288,0,0,0,613.714,96h-3.428A2.288,2.288,0,0,0,608,98.286V99h-4a1,1,0,0,0,0,2h16a1,1,0,0,0,0-2Zm-10,0v-.714a.29.29,0,0,1,.286-.286h3.428a.29.29,0,0,1,.286.286V99Z" transform="translate(0 -1)"/>
  </g>
</svg>
