<svg xmlns="http://www.w3.org/2000/svg" width="19.023" height="18" viewBox="0 0 19.023 18">
  <g id="&#x421;&#x433;&#x440;&#x443;&#x43F;&#x43F;&#x438;&#x440;&#x43E;&#x432;&#x430;&#x442;&#x44C;_4496" data-name="&#x421;&#x433;&#x440;&#x443;&#x43F;&#x43F;&#x438;&#x440;&#x43E;&#x432;&#x430;&#x442;&#x44C; 4496" transform="translate(-604 -171)">
    <path id="&#x41A;&#x43E;&#x43D;&#x442;&#x443;&#x440;_11088" data-name="&#x41A;&#x43E;&#x43D;&#x442;&#x443;&#x440; 11088" d="M619,184a1,1,0,0,0-1,1,2,2,0,0,1-2,2h-8a2,2,0,0,1-2-2v-8a2,2,0,0,1,2-2h4a1,1,0,0,0,0-2h-4a4,4,0,0,0-4,4v8a4,4,0,0,0,4,4h8a4,4,0,0,0,4-4A1,1,0,0,0,619,184Z"/>
    <path id="&#x41A;&#x43E;&#x43D;&#x442;&#x443;&#x440;_11089" data-name="&#x41A;&#x43E;&#x43D;&#x442;&#x443;&#x440; 11089" d="M622.436,173.494l-1.906-1.907a2.014,2.014,0,0,0-2.843,0l-6.354,6.353c-.229.23-.545.546-1.418,4.534a1.369,1.369,0,0,0,1.631,1.634c3.993-.875,4.308-1.19,4.537-1.42l6.353-6.352a2.015,2.015,0,0,0,0-2.843Zm-7.694,7.708a19.238,19.238,0,0,1-2.655.735,20.363,20.363,0,0,1,.734-2.655l3.513-3.5,1.916,1.916Zm6.279-6.28h0l-1.357,1.357-1.915-1.914L619.116,173l1.906,1.919Z"/>
  </g>
</svg>
