<svg id="svg" xmlns="http://www.w3.org/2000/svg" width="18" height="18" viewBox="0 0 18 18">
  <path id="Path_10800" data-name="Path 10800" d="M6.3,16H2.8a.736.736,0,0,1-.8-.8V2.8A.736.736,0,0,1,2.8,2H6.4a.945.945,0,0,0,1-1,.945.945,0,0,0-1-1H2.8A2.734,2.734,0,0,0,0,2.8V15.2A2.734,2.734,0,0,0,2.8,18H6.4a.945.945,0,0,0,1-1A1.028,1.028,0,0,0,6.3,16Z"/>
  <path id="Path_10801" data-name="Path 10801" d="M17.7,8.3,13.3,3.9a.99.99,0,1,0-1.4,1.4L14.6,8H6.2a.945.945,0,0,0-1,1,.945.945,0,0,0,1,1h8.4l-2.7,2.7a.967.967,0,0,0,0,1.4.967.967,0,0,0,1.4,0l4.4-4.4A.967.967,0,0,0,17.7,8.3Z"/>
</svg>
