<svg id="icon" xmlns="http://www.w3.org/2000/svg" width="8.001" height="13" viewBox="0 0 8.001 13">
  <path id="&#x41A;&#x43E;&#x43D;&#x442;&#x443;&#x440;_11095" data-name="&#x41A;&#x43E;&#x43D;&#x442;&#x443;&#x440; 11095" d="M108,178a1,1,0,0,0-.707.293l-3,3a1,1,0,0,0,1.414,1.414L108,180.414l2.293,2.293a1,1,0,1,0,1.414-1.414l-3-3A1,1,0,0,0,108,178Z" transform="translate(-104 -178)"/>
  <path id="&#x41A;&#x43E;&#x43D;&#x442;&#x443;&#x440;_11097" data-name="&#x41A;&#x43E;&#x43D;&#x442;&#x443;&#x440; 11097" d="M108.012,170a1,1,0,0,0-1,1v9a1,1,0,0,0,2,0v-9A1,1,0,0,0,108.012,170Z" transform="translate(-104 -168)"/>
</svg>
