<svg xmlns="http://www.w3.org/2000/svg" width="25" height="25" viewBox="0 0 25 25">
  <g id="Сгруппировать_4222" data-name="Сгруппировать 4222" transform="translate(10912 3693)">
    <path id="path" d="M0,0H25V25H0Z" transform="translate(-10912 -3693)" fill="none" fill-rule="evenodd"/>
    <path id="path-2" data-name="path" d="M9.441,16H5.5a.5.5,0,0,0-.447.276l-3,6A.5.5,0,0,0,2.5,23h20a.5.5,0,0,0,.447-.724l-3-6A.5.5,0,0,0,19.5,16H9.441Z" transform="translate(-10912 -3693)" fill="#ffa723"/>
    <path id="Вычитание_14" data-name="Вычитание 14" d="M7.5,17.9a.5.5,0,0,1-.354-.146l-4.9-4.9A7.5,7.5,0,1,1,15,7.5a7.44,7.44,0,0,1-2.252,5.359l-4.9,4.9A.5.5,0,0,1,7.5,17.9ZM7.5,4A3.5,3.5,0,1,0,11,7.5,3.5,3.5,0,0,0,7.5,4Z" transform="translate(-10907 -3691)" fill="#00c2ff"/>
  </g>
</svg>
