<svg xmlns="http://www.w3.org/2000/svg" width="17.962" height="18" viewBox="0 0 17.962 18">
  <g id="phone-call_1_" data-name="phone-call (1)" transform="translate(-0.113)">
    <path id="&#x41A;&#x43E;&#x43D;&#x442;&#x443;&#x440;_883" data-name="&#x41A;&#x43E;&#x43D;&#x442;&#x443;&#x440; 883" d="M8.732,11.07A14.747,14.747,0,0,1,5.616,7.344l-.4-.762C5.353,6.43,6.431,5.276,6.9,4.65c.587-.786-.264-1.5-.264-1.5S4.239.76,3.694.285A1.175,1.175,0,0,0,2.52.073C1.373.814.184,1.458.113,4.557c0,2.9,2.2,5.893,4.581,8.209C7.079,15.381,10.353,18,13.519,18c3.1-.071,3.742-1.259,4.483-2.406a1.175,1.175,0,0,0-.211-1.174c-.475-.546-2.87-2.941-2.87-2.941s-.71-.851-1.5-.264c-.586.438-1.638,1.412-1.892,1.649A20.991,20.991,0,0,1,8.732,11.07Z" transform="translate(0 0)"/>
  </g>
</svg>
