<?xml version="1.0" encoding="utf-8"?>
<!-- Generator: Adobe Illustrator 22.1.0, SVG Export Plug-In . SVG Version: 6.00 Build 0)  -->
<svg version="1.1" id="&#x421;&#x43B;&#x43E;&#x439;_1" xmlns="http://www.w3.org/2000/svg" xmlns:xlink="http://www.w3.org/1999/xlink" x="0px" y="0px" viewBox="0 0 24.8 20.1" xml:space="preserve">

<g>
	<path class="st0" d="M1.4,9h6c0.6,0,1-0.4,1-1S8,7,7.4,7H3.9l2.8-2.7c0.8-0.8,1.9-1.5,3-1.9c2-0.7,4.2-0.6,6.1,0.3
		c1.9,0.9,3.4,2.5,4.1,4.6c0.2,0.5,0.8,0.8,1.3,0.6c0.5-0.2,0.8-0.8,0.6-1.3C21,4.2,19.1,2.2,16.7,1c-2.4-1.1-5.1-1.3-7.6-0.4
		C7.7,1.1,6.4,1.9,5.4,3l-3,2.8V2c0-0.6-0.4-1-1-1s-1,0.4-1,1v6c0,0,0,0.1,0,0.1c0,0.1,0,0.2,0,0.2c0,0.1,0.1,0.1,0.1,0.2
		c0,0,0,0.1,0.1,0.1c0,0,0,0,0,0C0.8,8.8,0.9,8.9,1,9c0,0,0,0,0,0C1.1,9,1.3,9,1.4,9z"/>
	<path class="st0" d="M24.4,11.9c0-0.1,0-0.1,0-0.2c0-0.1-0.1-0.1-0.1-0.2c0,0,0-0.1-0.1-0.1c0,0,0,0,0,0c-0.1-0.1-0.1-0.1-0.2-0.2
		c0,0-0.1-0.1-0.1-0.1c0,0-0.1,0-0.1,0c-0.1,0-0.2,0-0.2,0c0,0,0,0,0,0h-6c-0.6,0-1,0.4-1,1s0.4,1,1,1h3.5l-2.8,2.7
		c-3.1,3.1-8.2,3.1-11.3,0c-0.8-0.8-1.5-1.9-1.9-3c-0.2-0.5-0.8-0.8-1.3-0.6c-0.5,0.2-0.8,0.8-0.6,1.3c0.5,1.4,1.3,2.7,2.4,3.7
		c2,2,4.5,2.9,7.1,2.9c2.6,0,5.1-1,7-2.9l3-2.8V18c0,0.6,0.4,1,1,1s1-0.4,1-1v-6C24.4,12,24.4,11.9,24.4,11.9z"/>
</g>
</svg>
