<svg xmlns="http://www.w3.org/2000/svg" width="12.281" height="10.243" viewBox="0 0 12.281 10.243">
  <g id="FL_vew" data-name="FL vew" transform="translate(-1.768 -2.788)">
    <path id="&#x41A;&#x43E;&#x43D;&#x442;&#x443;&#x440;_11132" data-name="&#x41A;&#x43E;&#x43D;&#x442;&#x443;&#x440; 11132" d="M9.417,13.844H6.71V5.964a7.9,7.9,0,0,0-1.176.013.832.832,0,0,0-.692.732.864.864,0,0,0,.4.862.36.36,0,0,1,.145.484C5.18,8.708,5,9.368,4.8,10.069c-.181-.067-.346-.121-.5-.19A3.1,3.1,0,0,1,2.439,7.868,3.13,3.13,0,0,1,4.578,3.8a4.743,4.743,0,0,1,1.362-.19c2.786-.018,5.569-.009,8.355-.009.085,0,.17.009.27.013v2.4H9.48v1.98h3.926V10.4H9.457v3.4C9.444,13.813,9.431,13.828,9.417,13.844Z" transform="translate(-0.515 -0.813)"/>
  </g>
</svg>
