<svg xmlns="http://www.w3.org/2000/svg" xmlns:xlink="http://www.w3.org/1999/xlink" width="612" height="18074" viewBox="0 0 612 18074"><svg width="30" height="30" viewBox="0 0 30 30" id="add" y="0"><g data-name="Сгруппировать 1660"><g data-name="Прямоугольник 731" stroke="#00c2ff" stroke-width="2"><rect width="30" height="30" rx="15" stroke="none"></rect><rect x="1" y="1" width="28" height="28" rx="14"></rect></g><path data-name="Объединение 52" d="M14 21.001v-5H9a1 1 0 0 1 0-2h5v-5a1 1 0 1 1 2 0v5h5a1 1 0 0 1 0 2h-5v5a1 1 0 0 1-2 0z"></path></g></svg><svg width="14" height="10" viewBox="0 0 14 10" id="arrow-conner-left" y="30"><path d="M.3 4.3l4-4a.967.967 0 0 1 1.4 0 .967.967 0 0 1 0 1.4L3.4 4H13a.945.945 0 0 1 1 1 .945.945 0 0 1-1 1H3.4l2.3 2.3a.967.967 0 0 1 0 1.4 1.08 1.08 0 0 1-.7.3 1.08 1.08 0 0 1-.7-.3l-4-4a.967.967 0 0 1 0-1.4z"></path></svg><svg width="14" height="10" viewBox="0 0 14 10" id="arrow-conner-right" y="40"><path d="M13.7 4.3l-4-4a.967.967 0 0 0-1.4 0 .967.967 0 0 0 0 1.4L10.6 4H1a.945.945 0 0 0-1 1 .945.945 0 0 0 1 1h9.6L8.3 8.3a.967.967 0 0 0 0 1.4 1.08 1.08 0 0 0 .7.3 1.08 1.08 0 0 0 .7-.3l4-4a.967.967 0 0 0 0-1.4z"></path></svg><svg viewBox="0 0 129 129" width="129" height="129" id="arrow-down" y="50"><path d="M121.3 34.6c-1.6-1.6-4.2-1.6-5.8 0l-51 51.1-51.1-51.1c-1.6-1.6-4.2-1.6-5.8 0-1.6 1.6-1.6 4.2 0 5.8l53.9 53.9c.8.8 1.8 1.2 2.9 1.2 1 0 2.1-.4 2.9-1.2l53.9-53.9c1.7-1.6 1.7-4.2.1-5.8z"></path></svg><svg width="451.847" height="451.847" viewBox="0 0 451.847 451.847" id="arrow-down-fat" y="179"><path d="M225.923 354.706c-8.098 0-16.195-3.092-22.369-9.263L9.27 151.157c-12.359-12.359-12.359-32.397 0-44.751 12.354-12.354 32.388-12.354 44.748 0l171.905 171.915 171.906-171.909c12.359-12.354 32.391-12.354 44.744 0 12.365 12.354 12.365 32.392 0 44.751L248.292 345.449c-6.177 6.172-14.274 9.257-22.369 9.257z"></path></svg><svg viewBox="0 0 477.175 477.175" width="477.175" height="477.175" id="arrow-left" y="631"><path d="M145.188 238.575l215.5-215.5c5.3-5.3 5.3-13.8 0-19.1s-13.8-5.3-19.1 0l-225.1 225.1c-5.3 5.3-5.3 13.8 0 19.1l225.1 225c2.6 2.6 6.1 4 9.5 4s6.9-1.3 9.5-4c5.3-5.3 5.3-13.8 0-19.1l-215.4-215.5z"></path></svg><svg viewBox="0 0 492 492" width="492" height="492" id="arrow-left-fat" y="1109"><path d="M464.344 207.418l.768.168H135.888l103.496-103.724c5.068-5.064 7.848-11.924 7.848-19.124 0-7.2-2.78-14.012-7.848-19.088L223.28 49.538c-5.064-5.064-11.812-7.864-19.008-7.864-7.2 0-13.952 2.78-19.016 7.844L7.844 226.914C2.76 231.998-.02 238.77 0 245.974c-.02 7.244 2.76 14.02 7.844 19.096l177.412 177.412c5.064 5.06 11.812 7.844 19.016 7.844 7.196 0 13.944-2.788 19.008-7.844l16.104-16.112c5.068-5.056 7.848-11.808 7.848-19.008 0-7.196-2.78-13.592-7.848-18.652L134.72 284.406h329.992c14.828 0 27.288-12.78 27.288-27.6v-22.788c0-14.82-12.828-26.6-27.656-26.6z"></path></svg><svg viewBox="0 0 477.175 477.175" width="477.175" height="477.175" id="arrow-right" y="1601"><path d="M360.731 229.075l-225.1-225.1c-5.3-5.3-13.8-5.3-19.1 0s-5.3 13.8 0 19.1l215.5 215.5-215.5 215.5c-5.3 5.3-5.3 13.8 0 19.1 2.6 2.6 6.1 4 9.5 4 3.4 0 6.9-1.3 9.5-4l225.1-225.1c5.3-5.2 5.3-13.8.1-19z"></path></svg><svg viewBox="0 0 492.004 492.004" width="492.004" height="492.004" id="arrow-right-fat" y="2079"><path d="M484.14 226.886L306.46 49.202c-5.072-5.072-11.832-7.856-19.04-7.856-7.216 0-13.972 2.788-19.044 7.856l-16.132 16.136c-5.068 5.064-7.86 11.828-7.86 19.04 0 7.208 2.792 14.2 7.86 19.264L355.9 207.526H26.58C11.732 207.526 0 219.15 0 234.002v22.812c0 14.852 11.732 27.648 26.58 27.648h330.496L252.248 388.926c-5.068 5.072-7.86 11.652-7.86 18.864 0 7.204 2.792 13.88 7.86 18.948l16.132 16.084c5.072 5.072 11.828 7.836 19.044 7.836 7.208 0 13.968-2.8 19.04-7.872l177.68-177.68c5.084-5.088 7.88-11.88 7.86-19.1.016-7.244-2.776-14.04-7.864-19.12z"></path></svg><svg viewBox="0 0 489.6 489.6" width="489.6" height="489.6" id="arrow-round-left" y="2572"><path d="M244.8 489.6c135 0 244.8-109.8 244.8-244.8S379.8 0 244.8 0 0 109.8 0 244.8s109.8 244.8 244.8 244.8zm0-469.8c124.1 0 225 100.9 225 225s-100.9 225-225 225-225-100.9-225-225 100.9-225 225-225z"></path><path d="M265.5 326.1c1.9 1.9 4.5 2.9 7 2.9s5.1-1 7-2.9c3.9-3.9 3.9-10.1 0-14l-67.3-67.3 67.3-67.3c3.9-3.9 3.9-10.1 0-14s-10.1-3.9-14 0l-74.3 74.3c-3.9 3.9-3.9 10.1 0 14l74.3 74.3z"></path></svg><svg width="64" height="64" viewBox="0 0 64 64" id="arrow-up" y="3062"><path d="M3.352 48.296l28.56-28.328 28.58 28.347c.397.394.917.59 1.436.59.52 0 1.04-.196 1.436-.59a2.003 2.003 0 0 0 0-2.849l-29.98-29.735c-.2-.2-.494-.375-.757-.475a2.052 2.052 0 0 0-2.166.456L.479 45.447a2.003 2.003 0 0 0 0 2.849 2.045 2.045 0 0 0 2.873 0z"></path></svg><svg width="451.847" height="451.846" viewBox="0 0 451.847 451.846" id="arrow-up-fat" y="3126"><path d="M248.292 106.406l194.281 194.29c12.365 12.359 12.365 32.391 0 44.744-12.354 12.354-32.391 12.354-44.744 0L225.923 173.529 54.018 345.44c-12.36 12.354-32.395 12.354-44.748 0-12.359-12.354-12.359-32.391 0-44.75L203.554 106.4c6.18-6.174 14.271-9.259 22.369-9.259 8.095 0 16.192 3.091 22.369 9.265z"></path></svg><svg viewBox="0 0 475.2 475.2" width="475.2" height="475.2" id="cancel" y="3578"><path d="M405.6 69.6C360.7 24.7 301.1 0 237.6 0s-123.1 24.7-168 69.6S0 174.1 0 237.6s24.7 123.1 69.6 168 104.5 69.6 168 69.6 123.1-24.7 168-69.6 69.6-104.5 69.6-168-24.7-123.1-69.6-168zm-19.1 316.9c-39.8 39.8-92.7 61.7-148.9 61.7s-109.1-21.9-148.9-61.7c-82.1-82.1-82.1-215.7 0-297.8C128.5 48.9 181.4 27 237.6 27s109.1 21.9 148.9 61.7c82.1 82.1 82.1 215.7 0 297.8z"></path><path d="M342.3 132.9c-5.3-5.3-13.8-5.3-19.1 0l-85.6 85.6-85.6-85.6c-5.3-5.3-13.8-5.3-19.1 0-5.3 5.3-5.3 13.8 0 19.1l85.6 85.6-85.6 85.6c-5.3 5.3-5.3 13.8 0 19.1 2.6 2.6 6.1 4 9.5 4s6.9-1.3 9.5-4l85.6-85.6 85.6 85.6c2.6 2.6 6.1 4 9.5 4 3.5 0 6.9-1.3 9.5-4 5.3-5.3 5.3-13.8 0-19.1l-85.4-85.6 85.6-85.6c5.3-5.3 5.3-13.8 0-19.1z"></path></svg><svg width="33" height="23" viewBox="0 0 33 23" id="card" y="4054"><defs><path id="a" d="M468 1286.6v2.3h-30v-2.3c0-.85.67-1.54 1.5-1.54h27c.83 0 1.5.69 1.5 1.54zm-30 5.38h30v11.54c0 .85-.67 1.54-1.5 1.54h-27c-.83 0-1.5-.69-1.5-1.54zm10.12 8.46c0-.84-.67-1.53-1.5-1.53-.82 0-1.5.69-1.5 1.53 0-.84-.67-1.53-1.5-1.53-.82 0-1.5.69-1.5 1.53 0 .85.68 1.54 1.5 1.54.83 0 1.5-.69 1.5-1.54 0 .85.68 1.54 1.5 1.54.83 0 1.5-.69 1.5-1.54z"></path></defs><use xlink:href="#a" transform="translate(-436 -1284)"></use></svg><svg viewBox="0 0 512 512" width="512" height="512" id="cart" y="4077"><path d="M485.7 198.5c-10.7-13.4-25.3-20.8-41.1-20.8h-36.1C405.1 85.1 338 11 256 11S106.9 85.1 103.5 177.7H67.4c-15.8 0-30.4 7.4-41.1 20.8-13.5 16.8-18.4 40.2-13.3 62.7L56.3 452c6.5 28.8 28.9 49 54.4 49h290.5c25.5 0 47.9-20.1 54.4-49L499 261.2c5.1-22.5.2-45.9-13.3-62.7zM256 51.8c59.6 0 108.4 55.8 111.6 125.9H144.4c3.2-70 52-125.9 111.6-125.9zm203.2 200.3L415.9 443c-2.2 9.8-8.5 17.2-14.6 17.2H110.7c-6.1 0-12.4-7.4-14.6-17.2L52.8 252.1c-2.3-10.1-3.7-33.6 14.6-33.6h377.2c19.7 0 16.9 23.5 14.6 33.6z"></path><path d="M154.7 259.1c-11.3 0-20.4 9.1-20.4 20.4V407c0 11.3 9.1 20.4 20.4 20.4 11.3 0 20.4-9.1 20.4-20.4V279.5c.1-11.2-9.1-20.4-20.4-20.4zm98.9 0c-11.3 0-20.4 9.1-20.4 20.4V407c0 11.3 9.1 20.4 20.4 20.4 11.3 0 20.4-9.1 20.4-20.4V279.5c0-11.2-9.2-20.4-20.4-20.4zm98.8 0c-11.3 0-20.4 9.1-20.4 20.4V407c0 11.3 9.1 20.4 20.4 20.4 11.3 0 20.4-9.1 20.4-20.4V279.5c0-11.2-9.1-20.4-20.4-20.4z"></path></svg><svg width="25.2" height="24" viewBox="0 0 25.2 24" id="cart--color" y="4589"><g data-name="Сгруппировать 4453"><path d="M21.599 10.8l-.677 9.3c-.16 2.2-.788 2.7-2.989 2.7H7.353c-2.2 0-2.829-.5-2.989-2.7l-.676-9.3z" fill="#fff"></path><path data-name="path" d="M17.88.24l3.6 4.8a.6.6 0 0 1-.96.72l-3.6-4.8a.6.6 0 0 1 .96-.72zM8.16.12a.6.6 0 0 1 .12.84l-3.6 4.8a.6.6 0 0 1-.96-.72l3.6-4.8a.6.6 0 0 1 .84-.12z" fill="#2b2c34"></path><path data-name="path" d="M1.8 6a.6.6 0 0 0-.6.6V9a.6.6 0 0 0 .6.6h21.6A.6.6 0 0 0 24 9V6.6a.6.6 0 0 0-.6-.6zm21 4.8l-.677 9.3a4.2 4.2 0 0 1-4.189 3.9H7.353a4.2 4.2 0 0 1-4.189-3.9l-.677-9.3H1.8A1.8 1.8 0 0 1 0 9V6.6a1.8 1.8 0 0 1 1.8-1.8h21.6a1.8 1.8 0 0 1 1.8 1.8V9a1.8 1.8 0 0 1-1.8 1.8zm-19.11 0l.67 9.218A3 3 0 0 0 7.353 22.8h10.584a3 3 0 0 0 2.992-2.782L21.6 10.8z" fill="#2b2c34"></path><path data-name="path" d="M1.8 6a.6.6 0 0 0-.6.6V9a.6.6 0 0 0 .6.6h21.6A.6.6 0 0 0 24 9V6.6a.6.6 0 0 0-.6-.6z" fill="#ffc400"></path></g></svg><svg width="13.58" height="13.691" viewBox="0 0 13.58 13.691" id="cart-empty" y="4613"><path data-name="Контур 11105" d="M8.185 13.691H4.747c-.977 0-2.812-.416-4.13-3.2a8.372 8.372 0 0 1-.014-6.163.7.7 0 0 1 .646-.432h11.133a.7.7 0 0 1 .663.476c.049.148 1.2 3.643-.037 6.131a5.606 5.606 0 0 1-4.823 3.188zM1.75 5.297a6.72 6.72 0 0 0 .132 4.6c.732 1.546 1.75 2.4 2.865 2.4h3.438a4.238 4.238 0 0 0 3.571-2.41 7.369 7.369 0 0 0 .1-4.586z"></path><path data-name="Контур 11106" d="M9.938 4.2a.7.7 0 0 1-.7-.7 2.1 2.1 0 0 0-2.1-2.1h-.7a2.1 2.1 0 0 0-2.1 2.1.7.7 0 0 1-1.4 0 3.5 3.5 0 0 1 3.5-3.5h.7a3.5 3.5 0 0 1 3.5 3.5.7.7 0 0 1-.7.7z"></path><path data-name="Контур 11107" d="M4.638 10.195a.7.7 0 0 1-.7-.7v-2.1a.7.7 0 0 1 1.4 0v2.1a.7.7 0 0 1-.7.7z"></path><path data-name="Контур 11108" d="M8.934 10.195a.7.7 0 0 1-.7-.7v-2.1a.7.7 0 0 1 1.4 0v2.1a.7.7 0 0 1-.7.7z"></path></svg><svg width="20" height="20" viewBox="0 0 20 20" id="check" y="4627"><g data-name="Сгруппировать 4499"><path data-name="Контур 1197" d="M10 0a10 10 0 1 0 10 10A10 10 0 0 0 10 0zm0 18a8 8 0 1 1 8-8 8 8 0 0 1-8 8z"></path><path data-name="Контур 1198" d="M12.7 6.39l-3.78 5-1.63-2.11a1.001 1.001 0 1 0-1.58 1.23l2.43 3.11a1 1 0 0 0 1.58-.01l4.57-6a1.006 1.006 0 0 0-1.6-1.22z"></path></g></svg><svg viewBox="0 0 191.667 191.667" width="191.667" height="191.667" id="check-round" y="4647"><path d="M95.833 0C42.991 0 0 42.99 0 95.833s42.991 95.834 95.833 95.834 95.833-42.991 95.833-95.834S148.676 0 95.833 0zm55.029 79.646l-60.207 60.207a13.463 13.463 0 0 1-9.583 3.969c-3.62 0-7.023-1.409-9.583-3.969l-30.685-30.685a13.464 13.464 0 0 1-3.97-9.583c0-3.621 1.41-7.024 3.97-9.584a13.46 13.46 0 0 1 9.583-3.97c3.62 0 7.024 1.41 9.583 3.971l21.101 21.1 50.623-50.623a13.463 13.463 0 0 1 9.583-3.969c3.62 0 7.023 1.409 9.583 3.969 5.286 5.286 5.286 13.883.002 19.167z"></path></svg><svg viewBox="0 0 26 26" width="26" height="26" id="checked" y="4839"><path d="M.3 14c-.2-.2-.3-.5-.3-.7s.1-.5.3-.7l1.4-1.4c.4-.4 1-.4 1.4 0l.1.1 5.5 5.9c.2.2.5.2.7 0L22.8 3.3h.1c.4-.4 1-.4 1.4 0l1.4 1.4c.4.4.4 1 0 1.4l-16 16.6c-.2.2-.4.3-.7.3-.3 0-.5-.1-.7-.3L.5 14.3.3 14z"></path></svg><svg height="512" viewBox="0 0 512 512" width="512" id="clip" y="4865"><path d="M226 512c-49.626 0-90-40.374-90-90V120C136 53.832 189.832 0 256 0s120 53.832 120 120v302h-30V120c0-49.626-40.374-90-90-90s-90 40.374-90 90v302c0 33.084 26.916 60 60 60s60-26.916 60-60V180c0-16.542-13.458-30-30-30s-30 13.458-30 30v242h-30V180c0-33.084 26.916-60 60-60s60 26.916 60 60v242c0 49.626-40.374 90-90 90z"></path></svg><svg width="20" height="20" viewBox="0 0 20 20" id="clock" y="5377"><g data-name="Сгруппировать 4497"><path data-name="Контур 1192" d="M10 0a10 10 0 1 0 10 10A10 10 0 0 0 10 0zm0 18a8 8 0 1 1 8-8 8 8 0 0 1-8 8z"></path><path data-name="Контур 1193" d="M14 9h-3V6a1 1 0 0 0-2 0v4a1 1 0 0 0 1 1h4a1 1 0 0 0 0-2z"></path></g></svg><svg width="18" height="18.106" viewBox="0 0 18 18.106" id="close" y="5397"><path d="M10.379 9.018l7.034-7.158a1.115 1.115 0 0 0 0-1.544 1.069 1.069 0 0 0-1.517 0L8.862 7.474 1.825.316a1.069 1.069 0 0 0-1.517 0 1.115 1.115 0 0 0 0 1.544l7.037 7.158L.31 16.175a1.115 1.115 0 0 0 0 1.544 1.091 1.091 0 0 0 1.655 0l7.034-7.158 7.034 7.158a1 1 0 0 0 .828.281 1.937 1.937 0 0 0 .828-.281 1.115 1.115 0 0 0 0-1.544z"></path></svg><svg viewBox="0 0 21.9 21.9" width="21.9" height="21.9" id="close-fat" y="5416"><path d="M14.1 11.3c-.2-.2-.2-.5 0-.7l7.5-7.5c.2-.2.3-.5.3-.7s-.1-.5-.3-.7L20.2.3c-.2-.2-.5-.3-.7-.3-.3 0-.5.1-.7.3l-7.5 7.5c-.2.2-.5.2-.7 0L3.1.3C2.9.1 2.6 0 2.4 0s-.5.1-.7.3L.3 1.7c-.2.2-.3.5-.3.7s.1.5.3.7l7.5 7.5c.2.2.2.5 0 .7L.3 18.8c-.2.2-.3.5-.3.7s.1.5.3.7l1.4 1.4c.2.2.5.3.7.3s.5-.1.7-.3l7.5-7.5c.2-.2.5-.2.7 0l7.5 7.5c.2.2.5.3.7.3s.5-.1.7-.3l1.4-1.4c.2-.2.3-.5.3-.7s-.1-.5-.3-.7l-7.5-7.5z"></path></svg><svg width="32" height="32" viewBox="0 0 32 32" id="compass" y="5438"><path data-name="Path 886" d="M12.016.501A16.091 16.091 0 0 0 .501 12.016l1.816.467A14.211 14.211 0 0 1 12.483 2.318zm0 0"></path><path data-name="Path 887" d="M29.682 12.483l1.816-.467A16.091 16.091 0 0 0 19.984.501l-.467 1.816a14.211 14.211 0 0 1 10.165 10.165zm0 0"></path><path data-name="Path 888" d="M19.984 31.497a16.087 16.087 0 0 0 11.515-11.514l-1.816-.467a14.207 14.207 0 0 1-10.165 10.165zm0 0"></path><path data-name="Path 889" d="M2.318 19.516l-1.816.467a16.087 16.087 0 0 0 11.515 11.514l.467-1.816A14.207 14.207 0 0 1 2.318 19.516zm0 0"></path><path data-name="Path 890" d="M16 13.191a2.813 2.813 0 1 0 2.813 2.813A2.816 2.816 0 0 0 16 13.191zm.938 3.75h-1.875v-1.875h1.875zm0 0"></path><path data-name="Path 891" d="M16 0l-3.6 12.4L0 16l12.4 3.6L16 32l3.6-12.4L32 16l-12.4-3.6zm0 20.687A4.688 4.688 0 1 1 20.687 16 4.693 4.693 0 0 1 16 20.687zm0 0"></path><path data-name="Path 892" d="M23.068 11.459l2.528-5.055-5.056 2.527.571 1.957zm0 0"></path><path data-name="Path 893" d="M21.112 21.112l-.571 1.957 5.055 2.528-2.528-5.055zm0 0"></path><path data-name="Path 894" d="M8.931 20.541l-2.528 5.055 5.055-2.528-.571-1.956zm0 0"></path><path data-name="Path 895" d="M10.887 10.887l.571-1.957-5.056-2.527 2.528 5.055zm0 0"></path></svg><svg width="18" height="21" viewBox="0 0 18 21" id="delete" y="5470"><g data-name="Сгруппировать 4488"><path data-name="Контур 11090" d="M16 7H2a1 1 0 0 0-1 1v9a4 4 0 0 0 4 4h8a4 4 0 0 0 4-4V8a1 1 0 0 0-1-1zm-1 10a2 2 0 0 1-2 2H5a2 2 0 0 1-2-2V9h12z"></path><path data-name="Контур 11094" d="M17 3h-4v-.714A2.288 2.288 0 0 0 10.714 0H7.286A2.288 2.288 0 0 0 5 2.286V3H1a1 1 0 0 0 0 2h16a1 1 0 0 0 0-2zM7 3v-.714A.29.29 0 0 1 7.286 2h3.428a.29.29 0 0 1 .286.286V3z"></path></g></svg><svg viewBox="0 0 471.2 471.2" width="471.2" height="471.2" id="download" y="5491"><path d="M457.7 230.15c-7.5 0-13.5 6-13.5 13.5v122.8c0 33.4-27.2 60.5-60.5 60.5H87.5c-33.4 0-60.5-27.2-60.5-60.5v-124.8c0-7.5-6-13.5-13.5-13.5s-13.5 6-13.5 13.5v124.8c0 48.3 39.3 87.5 87.5 87.5h296.2c48.3 0 87.5-39.3 87.5-87.5v-122.8c0-7.4-6-13.5-13.5-13.5z"></path><path d="M226.1 346.75c2.6 2.6 6.1 4 9.5 4s6.9-1.3 9.5-4l85.8-85.8c5.3-5.3 5.3-13.8 0-19.1-5.3-5.3-13.8-5.3-19.1 0l-62.7 62.8V30.75c0-7.5-6-13.5-13.5-13.5s-13.5 6-13.5 13.5v273.9l-62.8-62.8c-5.3-5.3-13.8-5.3-19.1 0-5.3 5.3-5.3 13.8 0 19.1l85.9 85.8z"></path></svg><svg width="19.023" height="18" viewBox="0 0 19.023 18" id="edit" y="5963"><g data-name="Сгруппировать 4496"><path data-name="Контур 11088" d="M15 13a1 1 0 0 0-1 1 2 2 0 0 1-2 2H4a2 2 0 0 1-2-2V6a2 2 0 0 1 2-2h4a1 1 0 0 0 0-2H4a4 4 0 0 0-4 4v8a4 4 0 0 0 4 4h8a4 4 0 0 0 4-4 1 1 0 0 0-1-1z"></path><path data-name="Контур 11089" d="M18.436 2.494L16.53.587a2.014 2.014 0 0 0-2.843 0L7.333 6.94c-.229.23-.545.546-1.418 4.534a1.369 1.369 0 0 0 1.631 1.634c3.993-.875 4.308-1.19 4.537-1.42l6.353-6.352a2.015 2.015 0 0 0 0-2.843zm-7.694 7.708a19.238 19.238 0 0 1-2.655.735 20.363 20.363 0 0 1 .734-2.655l3.513-3.5 1.916 1.916zm6.279-6.28l-1.357 1.357-1.915-1.914L15.116 2l1.906 1.919z"></path></g></svg><svg width="18" height="18" viewBox="0 0 18 18" id="exit" y="5981"><path data-name="Path 10800" d="M6.3 16H2.8a.736.736 0 0 1-.8-.8V2.8a.736.736 0 0 1 .8-.8h3.6a.945.945 0 0 0 1-1 .945.945 0 0 0-1-1H2.8A2.734 2.734 0 0 0 0 2.8v12.4A2.734 2.734 0 0 0 2.8 18h3.6a.945.945 0 0 0 1-1 1.028 1.028 0 0 0-1.1-1z"></path><path data-name="Path 10801" d="M17.7 8.3l-4.4-4.4a.99.99 0 1 0-1.4 1.4L14.6 8H6.2a.945.945 0 0 0-1 1 .945.945 0 0 0 1 1h8.4l-2.7 2.7a.967.967 0 0 0 0 1.4.967.967 0 0 0 1.4 0l4.4-4.4a.967.967 0 0 0 0-1.4z"></path></svg><svg width="612" height="612" viewBox="0 0 612 612" id="free" y="5999"><path d="M612 338.19v55.625c0 13.877-11.249 25.125-25.126 25.125h-26.885c-4.857-33.332-33.585-58.961-68.259-58.961-34.59 0-63.317 25.629-68.175 58.961H195.162c-4.857-33.332-33.585-58.961-68.175-58.961s-63.318 25.629-68.175 58.961H25.143c-13.876 0-25.125-11.248-25.125-25.125V338.19H612zM173.067 203.958h-14.313l-5.259 27.155h13.945c9.292 0 16.996-6.363 16.996-17.004 0-6.478-4.277-10.151-11.369-10.151zm370.825 224.949c0 28.729-23.367 52.094-52.095 52.094-28.811 0-52.178-23.367-52.178-52.094 0-28.811 23.367-52.178 52.178-52.178 28.727 0 52.095 23.368 52.095 52.178zm-26.047 0c0-14.404-11.726-26.047-26.047-26.047-14.405 0-26.048 11.643-26.048 26.047 0 14.322 11.643 26.049 26.048 26.049 14.321 0 26.047-11.727 26.047-26.049zm-338.782 0c0 28.729-23.283 52.094-52.094 52.094s-52.094-23.367-52.094-52.094c0-28.811 23.284-52.178 52.094-52.178s52.094 23.368 52.094 52.178zm-26.046 0c0-14.404-11.642-26.047-26.046-26.047-14.406 0-26.047 11.643-26.047 26.047 0 14.322 11.642 26.049 26.047 26.049 14.404 0 26.046-11.727 26.046-26.049zm458.965-104.605H0V156.125C0 142.222 11.307 131 25.125 131h379.736c13.903 0 25.126 11.223 25.126 25.125v18.678h49.833c8.794 0 17.253 3.518 23.534 9.715l98.745 97.656c6.281 6.282 9.883 14.824 9.883 23.786v18.342zM89.184 228.545l4.646-24.586h34.245l2.568-13.577H80.866l-16.881 86.837H79.64l6.854-35.104h28.863l2.568-13.569H89.184zm91.588 12.104v-.246c13.086-4.278 19.81-17.118 19.81-28.986 0-8.923-4.4-15.655-11.745-18.837-3.541-1.586-7.828-2.2-12.473-2.2h-30.696l-16.874 86.836h15.769l6.241-32.413h15.655l11.009 32.413h16.874l-11.614-32.168c-1.105-3.172-1.956-4.399-1.956-4.399zm96.341-50.268h-51.854l-16.996 86.837h53.932l2.568-13.577h-38.155l4.523-23.359h29.231l2.691-13.577h-29.231l4.4-22.746h36.201l2.69-13.578zm70.061 0h-51.855l-16.996 86.837h53.933l2.567-13.577h-38.155l4.523-23.359h29.231l2.691-13.577h-29.232l4.401-22.746h36.2l2.692-13.578zm214.557 88.274l-77.305-73.787c-.754-.669-1.759-1.088-2.764-1.088h-18.174a3.932 3.932 0 0 0-3.937 3.937v73.787a3.931 3.931 0 0 0 3.937 3.936h95.562c3.518-.001 5.277-4.356 2.681-6.785z"></path></svg><svg viewBox="0 0 471.701 471.701" width="471.701" height="471.701" id="heart" y="6611"><path d="M433.601 67.001c-24.7-24.7-57.4-38.2-92.3-38.2s-67.7 13.6-92.4 38.3l-12.9 12.9-13.1-13.1c-24.7-24.7-57.6-38.4-92.5-38.4-34.8 0-67.6 13.6-92.2 38.2-24.7 24.7-38.3 57.5-38.2 92.4 0 34.9 13.7 67.6 38.4 92.3l187.8 187.8c2.6 2.6 6.1 4 9.5 4 3.4 0 6.9-1.3 9.5-3.9l188.2-187.5c24.7-24.7 38.3-57.5 38.3-92.4.1-34.9-13.4-67.7-38.1-92.4zm-19.2 165.7l-178.7 178-178.3-178.3c-19.6-19.6-30.4-45.6-30.4-73.3s10.7-53.7 30.3-73.2c19.5-19.5 45.5-30.3 73.1-30.3 27.7 0 53.8 10.8 73.4 30.4l22.6 22.6c5.3 5.3 13.8 5.3 19.1 0l22.4-22.4c19.6-19.6 45.7-30.4 73.3-30.4 27.6 0 53.6 10.8 73.2 30.3 19.6 19.6 30.3 45.6 30.3 73.3.1 27.7-10.7 53.7-30.3 73.3z"></path></svg><svg viewBox="0 0 486.196 486.196" width="486.196" height="486.196" id="house" y="7083"><path d="M481.708 220.456l-228.8-204.6c-.4-.4-.8-.7-1.3-1-5-4.8-13-5-18.3-.3l-228.8 204.6c-5.6 5-6 13.5-1.1 19.1 2.7 3 6.4 4.5 10.1 4.5 3.2 0 6.4-1.1 9-3.4l41.2-36.9v238.6c0 18.7 15.2 34 34 34h72.2c17.6 0 31.9-14.3 31.9-31.9v-121.3c0-2.7 2.2-4.9 4.9-4.9h72.9c2.7 0 4.9 2.2 4.9 4.9v121.3c0 17.6 14.3 31.9 31.9 31.9h72.2c19 0 34-18.7 34-42.6v-228.7l41.2 36.9c2.6 2.3 5.8 3.4 9 3.4 3.7 0 7.4-1.5 10.1-4.5 4.8-5.6 4.3-14.1-1.2-19.1zm-86.2 66.7v145.1c0 9.7-4.8 15.6-7 15.6h-72.2c-2.7 0-4.9-2.2-4.9-4.9v-121.1c0-17.6-14.3-31.9-31.9-31.9h-72.9c-17.6 0-31.9 14.3-31.9 31.9v121.3c0 2.7-2.2 4.9-4.9 4.9h-72.2c-3.8 0-7-3.1-7-7v-262.8l151.8-135.6 153.1 136.9v107.6z"></path></svg><svg width="8.001" height="13" viewBox="0 0 8.001 13" id="icon-1" y="7570"><path data-name="Контур 11095" d="M4 0a1 1 0 0 0-.707.293l-3 3a1 1 0 0 0 1.414 1.414L4 2.414l2.293 2.293a1 1 0 1 0 1.414-1.414l-3-3A1 1 0 0 0 4 0z"></path><path data-name="Контур 11097" d="M4.012 2a1 1 0 0 0-1 1v9a1 1 0 0 0 2 0V3a1 1 0 0 0-1-1z"></path></svg><svg viewBox="0 0 330 330" width="330" height="330" id="info" y="7583"><path d="M165 0C74.019 0 0 74.02 0 165.001 0 255.982 74.019 330 165 330s165-74.018 165-164.999S255.981 0 165 0zm0 300c-74.44 0-135-60.56-135-134.999S90.56 30 165 30s135 60.562 135 135.001C300 239.44 239.439 300 165 300z"></path><path d="M164.998 70c-11.026 0-19.996 8.976-19.996 20.009 0 11.023 8.97 19.991 19.996 19.991 11.026 0 19.996-8.968 19.996-19.991 0-11.033-8.97-20.009-19.996-20.009zm.002 70c-8.284 0-15 6.716-15 15v90c0 8.284 6.716 15 15 15 8.284 0 15-6.716 15-15v-90c0-8.284-6.716-15-15-15z"></path></svg><svg viewBox="0 0 490.4 490.4" width="490.4" height="490.4" id="interface" y="7913"><path d="M245.2 490.4c135.2 0 245.2-110 245.2-245.2S380.4 0 245.2 0 0 110 0 245.2s110 245.2 245.2 245.2zm0-465.9c121.7 0 220.7 99 220.7 220.7s-99 220.7-220.7 220.7-220.7-99-220.7-220.7 99-220.7 220.7-220.7z"></path><path d="M206.5 349.6c2.3 2.3 5.4 3.6 8.7 3.6 3.2 0 6.3-1.3 8.6-3.6l147.5-146.7c2.3-2.3 3.6-5.4 3.6-8.7 0-3.2-1.3-6.4-3.6-8.7l-44.6-44.8c-4.8-4.8-12.5-4.8-17.3-.1l-94 93.5-34.2-34.4c-2.3-2.3-5.4-3.6-8.7-3.6-3.2 0-6.3 1.3-8.6 3.6l-44.8 44.6c-2.3 2.3-3.6 5.4-3.6 8.7 0 3.2 1.3 6.4 3.6 8.7l87.4 87.9zm-34-123.9l34.3 34.5c4.8 4.8 12.5 4.8 17.3.1l94-93.5 27.3 27.4-130.1 129.4-70.2-70.6 27.4-27.3z"></path></svg><svg width="96" height="95.428" viewBox="0 0 96 95.428" id="like" y="8404"><path data-name="Path 83" d="M93.4 51.227a10.194 10.194 0 0 0-7.6-17H66A65.927 65.927 0 0 0 68.8 17v-3.4A13.617 13.617 0 0 0 55.2 0h-3.4a3.4 3.4 0 0 0-3.3 2.575l-1.852 7.41c-2.6 10.377-10.835 21.826-19.362 23.907a10.214 10.214 0 0 0-9.488-6.465H3.4a3.4 3.4 0 0 0-3.4 3.4v61.2a3.4 3.4 0 0 0 3.4 3.4h14.4a10.211 10.211 0 0 0 9.207-5.814l11.682 3.894a37.318 37.318 0 0 0 11.828 1.92H79a10.2 10.2 0 0 0 9.484-13.958 10.194 10.194 0 0 0 4.912-16.642 10.18 10.18 0 0 0 0-13.6zm-72.2 34a3.4 3.4 0 0 1-3.4 3.4h-11v-54.4h11a3.4 3.4 0 0 1 3.4 3.4zm57.8-30.6h6.8a3.4 3.4 0 1 1 0 6.8H79a3.4 3.4 0 0 0 0 6.8h6.8a3.4 3.4 0 1 1 0 6.8H79a3.4 3.4 0 1 0 0 6.8 3.4 3.4 0 0 1 0 6.8H50.517a30.534 30.534 0 0 1-9.679-1.571L28 82.777V40.705c5.333-1.013 10.554-4.391 15.266-9.919a49.611 49.611 0 0 0 9.98-19.151L54.454 6.8h.746a6.808 6.808 0 0 1 6.8 6.8V17c0 4.565-1.428 13.321-3.255 17.229H51.8a3.4 3.4 0 0 0 0 6.8h34a3.4 3.4 0 1 1 0 6.8H79a3.4 3.4 0 0 0 0 6.8z"></path></svg><svg width="18.393" height="23.039" viewBox="0 0 18.393 23.039" id="location" y="8500"><g data-name="Group 3524"><path data-name="Path 10785" d="M9.191 12.245H9.2a3.8 3.8 0 0 0 0-7.6 3.8 3.8 0 0 0-3.8 3.8v.019a3.79 3.79 0 0 0 3.791 3.781zm.009-6a2.2 2.2 0 1 1-2.2 2.2 2.2 2.2 0 0 1 2.2-2.2z"></path><path data-name="Path 10786" d="M8.679 22.855a.821.821 0 0 0 1.035 0c.111-.083 8.679-7.4 8.679-13.909A9.2 9.2 0 0 0 0 8.958c0 6.303 8.3 13.57 8.679 13.897zM3.824 3.574A7.6 7.6 0 0 1 16.8 8.945c0 4.321-4.588 9.353-7.324 11.967a.4.4 0 0 1-.552 0C6.187 18.3 1.6 13.268 1.6 8.945a7.542 7.542 0 0 1 2.224-5.371z"></path></g></svg><svg width="25" height="25" viewBox="0 0 25 25" id="location--color" y="8524"><g data-name="Сгруппировать 4222"><path d="M0 0h25v25H0z" fill="none"></path><path data-name="path" d="M9.441 16H5.5a.5.5 0 0 0-.447.276l-3 6A.5.5 0 0 0 2.5 23h20a.5.5 0 0 0 .447-.724l-3-6A.5.5 0 0 0 19.5 16H9.441z" fill="#ffa723"></path><path data-name="Вычитание 14" d="M12.5 19.9a.5.5 0 0 1-.354-.146l-4.9-4.9A7.5 7.5 0 1 1 20 9.5a7.44 7.44 0 0 1-2.252 5.359l-4.9 4.9a.5.5 0 0 1-.348.141zm0-13.9A3.5 3.5 0 1 0 16 9.5 3.5 3.5 0 0 0 12.5 6z" fill="#00c2ff"></path></g></svg><svg width="19" height="33" viewBox="0 0 19 33" id="login" y="8549"><path class="cls-1" d="M16.71 28.7h-5.16v-1.641h3.3a2.151 2.151 0 1 0 0-4.293h-3.29v-5.7a9.374 9.374 0 0 0 4.25-2.272 8.273 8.273 0 0 0 .01-12.255 9.721 9.721 0 0 0-13.1 0 8.272 8.272 0 0 0-.01 12.255 9.4 9.4 0 0 0 4.26 2.27L6.96 30.85a2.064 2.064 0 0 0 .68 1.518 2.111 2.111 0 0 0 .33.262 2.422 2.422 0 0 0 1.29.366h7.45a2.151 2.151 0 1 0 0-4.296zM5.96 11.76a4.174 4.174 0 0 1 0-6.184 4.905 4.905 0 0 1 6.61 0 4.174 4.174 0 0 1 0 6.184 4.9 4.9 0 0 1-6.61 0z"></path></svg><svg viewBox="0 0 483.3 483.3" width="483.3" height="483.3" id="mail" y="8582"><path d="M424.3 57.75H59.1c-32.6 0-59.1 26.5-59.1 59.1v249.6c0 32.6 26.5 59.1 59.1 59.1h365.1c32.6 0 59.1-26.5 59.1-59.1v-249.5c.1-32.6-26.4-59.2-59-59.2zm32.1 308.7c0 17.7-14.4 32.1-32.1 32.1H59.1c-17.7 0-32.1-14.4-32.1-32.1v-249.5c0-17.7 14.4-32.1 32.1-32.1h365.1c17.7 0 32.1 14.4 32.1 32.1v249.5h.1z"></path><path d="M304.8 238.55l118.2-106c5.5-5 6-13.5 1-19.1-5-5.5-13.5-6-19.1-1l-163 146.3-31.8-28.4c-.1-.1-.2-.2-.2-.3-.7-.7-1.4-1.3-2.2-1.9L78.3 112.35c-5.6-5-14.1-4.5-19.1 1.1-5 5.6-4.5 14.1 1.1 19.1l119.6 106.9-119.1 111.5c-5.4 5.1-5.7 13.6-.6 19.1 2.7 2.8 6.3 4.3 9.9 4.3 3.3 0 6.6-1.2 9.2-3.6l120.9-113.1 32.8 29.3c2.6 2.3 5.8 3.4 9 3.4s6.5-1.2 9-3.5l33.7-30.2 120.2 114.2c2.6 2.5 6 3.7 9.3 3.7 3.6 0 7.1-1.4 9.8-4.2 5.1-5.4 4.9-14-.5-19.1l-118.7-112.7z"></path></svg><svg width="17.601" height="15.6" viewBox="0 0 17.601 15.6" id="menu" y="9066"><path data-name="Union 193" d="M.8 15.601a.859.859 0 0 1-.8-.8.861.861 0 0 1 .8-.8h16a.863.863 0 0 1 .8.8.86.86 0 0 1-.8.8zm0-7a.859.859 0 0 1-.8-.8.859.859 0 0 1 .8-.8h16a.86.86 0 0 1 .8.8.861.861 0 0 1-.8.8zm0-7a.859.859 0 0 1-.8-.8.861.861 0 0 1 .8-.8h16a.863.863 0 0 1 .8.8.86.86 0 0 1-.8.8z"></path></svg><svg height="469" viewBox="0 -192 469.33333 469" width="469" id="minus" y="9082"><path d="M437.332.168H32c-17.664 0-32 14.336-32 32V53.5c0 17.664 14.336 32 32 32h405.332c17.664 0 32-14.336 32-32V32.168c0-17.664-14.336-32-32-32zm0 0"></path></svg><svg width="17.962" height="18" viewBox="0 0 17.962 18" id="phone" y="9551"><path data-name="Контур 883" d="M8.619 11.07a14.747 14.747 0 0 1-3.116-3.726l-.4-.762C5.24 6.43 6.318 5.276 6.787 4.65c.587-.786-.264-1.5-.264-1.5S4.126.76 3.581.285A1.175 1.175 0 0 0 2.407.073C1.26.814.071 1.458 0 4.557c0 2.9 2.2 5.893 4.581 8.209C6.966 15.381 10.24 18 13.406 18c3.1-.071 3.742-1.259 4.483-2.406a1.175 1.175 0 0 0-.211-1.174c-.475-.546-2.87-2.941-2.87-2.941s-.71-.851-1.5-.264c-.586.438-1.638 1.412-1.892 1.649a20.991 20.991 0 0 1-2.797-1.794z"></path></svg><svg viewBox="0 0 473.806 473.806" width="473.806" height="473.806" id="phone-call" y="9569"><path d="M374.456 293.506c-9.7-10.1-21.4-15.5-33.8-15.5-12.3 0-24.1 5.3-34.2 15.4l-31.6 31.5c-2.6-1.4-5.2-2.7-7.7-4-3.6-1.8-7-3.5-9.9-5.3-29.6-18.8-56.5-43.3-82.3-75-12.5-15.8-20.9-29.1-27-42.6 8.2-7.5 15.8-15.3 23.2-22.8 2.8-2.8 5.6-5.7 8.4-8.5 21-21 21-48.2 0-69.2l-27.3-27.3c-3.1-3.1-6.3-6.3-9.3-9.5-6-6.2-12.3-12.6-18.8-18.6-9.7-9.6-21.3-14.7-33.5-14.7s-24 5.1-34 14.7l-.2.2-34 34.3c-12.8 12.8-20.1 28.4-21.7 46.5-2.4 29.2 6.2 56.4 12.8 74.2 16.2 43.7 40.4 84.2 76.5 127.6 43.8 52.3 96.5 93.6 156.7 122.7 23 10.9 53.7 23.8 88 26 2.1.1 4.3.2 6.3.2 23.1 0 42.5-8.3 57.7-24.8.1-.2.3-.3.4-.5 5.2-6.3 11.2-12 17.5-18.1 4.3-4.1 8.7-8.4 13-12.9 9.9-10.3 15.1-22.3 15.1-34.6 0-12.4-5.3-24.3-15.4-34.3l-54.9-55.1zm35.8 105.3c-.1 0-.1.1 0 0-3.9 4.2-7.9 8-12.2 12.2-6.5 6.2-13.1 12.7-19.3 20-10.1 10.8-22 15.9-37.6 15.9-1.5 0-3.1 0-4.6-.1-29.7-1.9-57.3-13.5-78-23.4-56.6-27.4-106.3-66.3-147.6-115.6-34.1-41.1-56.9-79.1-72-119.9-9.3-24.9-12.7-44.3-11.2-62.6 1-11.7 5.5-21.4 13.8-29.7l34.1-34.1c4.9-4.6 10.1-7.1 15.2-7.1 6.3 0 11.4 3.8 14.6 7l.3.3c6.1 5.7 11.9 11.6 18 17.9 3.1 3.2 6.3 6.4 9.5 9.7l27.3 27.3c10.6 10.6 10.6 20.4 0 31-2.9 2.9-5.7 5.8-8.6 8.6-8.4 8.6-16.4 16.6-25.1 24.4-.2.2-.4.3-.5.5-8.6 8.6-7 17-5.2 22.7l.3.9c7.1 17.2 17.1 33.4 32.3 52.7l.1.1c27.6 34 56.7 60.5 88.8 80.8 4.1 2.6 8.3 4.7 12.3 6.7 3.6 1.8 7 3.5 9.9 5.3.4.2.8.5 1.2.7 3.4 1.7 6.6 2.5 9.9 2.5 8.3 0 13.5-5.2 15.2-6.9l34.2-34.2c3.4-3.4 8.8-7.5 15.1-7.5 6.2 0 11.3 3.9 14.4 7.3l.2.2 55.1 55.1c10.3 10.2 10.3 20.7.1 31.3zm-154.2-286.1c26.2 4.4 50 16.8 69 35.8s31.3 42.8 35.8 69c1.1 6.6 6.8 11.2 13.3 11.2.8 0 1.5-.1 2.3-.2 7.4-1.2 12.3-8.2 11.1-15.6-5.4-31.7-20.4-60.6-43.3-83.5s-51.8-37.9-83.5-43.3c-7.4-1.2-14.3 3.7-15.6 11s3.5 14.4 10.9 15.6zm217.2 96.3c-8.9-52.2-33.5-99.7-71.3-137.5s-85.3-62.4-137.5-71.3c-7.3-1.3-14.2 3.7-15.5 11-1.2 7.4 3.7 14.3 11.1 15.6 46.6 7.9 89.1 30 122.9 63.7 33.8 33.8 55.8 76.3 63.7 122.9 1.1 6.6 6.8 11.2 13.3 11.2.8 0 1.5-.1 2.3-.2 7.3-1.1 12.3-8.1 11-15.4z"></path></svg><svg height="448" viewBox="0 0 448 448" width="448" id="plus" y="10043"><path d="M408 184H272a8 8 0 0 1-8-8V40c0-22.09-17.91-40-40-40s-40 17.91-40 40v136a8 8 0 0 1-8 8H40c-22.09 0-40 17.91-40 40s17.91 40 40 40h136a8 8 0 0 1 8 8v136c0 22.09 17.91 40 40 40s40-17.91 40-40V272a8 8 0 0 1 8-8h136c22.09 0 40-17.91 40-40s-17.91-40-40-40zm0 0"></path></svg><svg viewBox="0 0 55 55" width="55" height="55" id="profile" y="10491"><path d="M55 27.5C55 12.337 42.663 0 27.5 0S0 12.337 0 27.5c0 8.009 3.444 15.228 8.926 20.258l-.026.023.892.752c.058.049.121.089.179.137.474.393.965.766 1.465 1.127.162.117.324.234.489.348.534.368 1.082.717 1.642 1.048.122.072.245.142.368.212a27.44 27.44 0 0 0 1.88.98l.142.064a27.252 27.252 0 0 0 6.651 2.105l.184.033c.724.125 1.456.225 2.197.292.09.008.18.013.271.021.738.061 1.484.1 2.24.1.749 0 1.488-.039 2.222-.098l.279-.021a27.808 27.808 0 0 0 2.178-.287l.187-.034a27.251 27.251 0 0 0 6.557-2.055c.076-.035.153-.068.229-.104a27.639 27.639 0 0 0 2.25-1.189 27.514 27.514 0 0 0 1.581-1c.185-.126.366-.259.549-.391.439-.316.87-.642 1.289-.983.093-.075.193-.14.284-.217l.915-.764-.027-.023C51.523 42.802 55 35.55 55 27.5zm-53 0C2 13.439 13.439 2 27.5 2S53 13.439 53 27.5c0 7.577-3.325 14.389-8.589 19.063a7.494 7.494 0 0 0-.893-.537l-8.467-4.233a2.217 2.217 0 0 1-1.232-1.993v-2.957c.196-.242.403-.516.617-.817a20.378 20.378 0 0 0 2.616-5.123 3.63 3.63 0 0 0 2.085-3.289v-3.545c0-.867-.318-1.708-.887-2.369v-4.667c.052-.519.236-3.448-1.883-5.864C34.524 9.065 31.541 8 27.5 8s-7.024 1.065-8.867 3.168c-2.119 2.416-1.935 5.345-1.883 5.864v4.667a3.644 3.644 0 0 0-.887 2.369v3.545c0 1.101.494 2.128 1.34 2.821.81 3.173 2.477 5.575 3.093 6.389v2.894a2.23 2.23 0 0 1-1.162 1.958l-7.907 4.313a7.227 7.227 0 0 0-.752.476C5.276 41.792 2 35.022 2 27.5zm40.459 20.632c-.35.254-.706.5-1.067.735-.166.108-.331.216-.5.321-.472.292-.952.57-1.442.83-.108.057-.217.111-.326.167a25.481 25.481 0 0 1-3.488 1.476l-.127.043c-.627.208-1.262.393-1.904.552l-.006.001a25.59 25.59 0 0 1-1.964.402l-.054.01c-.621.101-1.247.174-1.875.229-.111.01-.222.017-.334.025-.621.047-1.245.077-1.872.077a25.43 25.43 0 0 1-1.895-.078c-.109-.008-.218-.015-.326-.025a25.862 25.862 0 0 1-1.89-.233l-.084-.015a25.405 25.405 0 0 1-3.89-.971l-.118-.04a25.86 25.86 0 0 1-1.862-.713l-.013-.006a26.094 26.094 0 0 1-1.705-.816c-.073-.038-.147-.074-.219-.113a25.7 25.7 0 0 1-1.939-1.155 25.417 25.417 0 0 1-1.338-.933l-.133-.104.096-.054 7.907-4.313a4.229 4.229 0 0 0 2.205-3.714l-.001-3.602-.23-.278c-.022-.025-2.184-2.655-3.001-6.216l-.091-.396-.341-.221a1.657 1.657 0 0 1-.769-1.392v-3.545c0-.465.197-.898.557-1.223l.33-.298v-5.57l-.009-.131c-.003-.024-.298-2.429 1.396-4.36C21.583 10.837 24.061 10 27.5 10c3.426 0 5.896.83 7.346 2.466 1.692 1.911 1.415 4.361 1.413 4.381l-.009 5.701.33.298c.359.324.557.758.557 1.223v3.545a1.67 1.67 0 0 1-1.181 1.575l-.497.153-.16.495a18.5 18.5 0 0 1-2.496 5.032c-.262.37-.517.698-.736.949l-.248.283V39.8c0 1.612.896 3.062 2.338 3.782l8.467 4.233.16.083c-.107.081-.217.156-.325.234z"></path></svg><svg viewBox="0 0 24.8 20.1" width="24.8" height="20.1" id="refresh" y="10546"><path class="st0" d="M1.4 9h6c.6 0 1-.4 1-1s-.4-1-1-1H3.9l2.8-2.7c.8-.8 1.9-1.5 3-1.9 2-.7 4.2-.6 6.1.3 1.9.9 3.4 2.5 4.1 4.6.2.5.8.8 1.3.6.5-.2.8-.8.6-1.3-.8-2.4-2.7-4.4-5.1-5.6C14.3-.1 11.6-.3 9.1.6 7.7 1.1 6.4 1.9 5.4 3l-3 2.8V2c0-.6-.4-1-1-1s-1 .4-1 1v6.3c0 .1.1.1.1.2 0 0 0 .1.1.1L1 9h.4zm23 2.9v-.2c0-.1-.1-.1-.1-.2 0 0 0-.1-.1-.1l-.2-.2-.1-.1h-6.3c-.6 0-1 .4-1 1s.4 1 1 1h3.5l-2.8 2.7c-3.1 3.1-8.2 3.1-11.3 0-.8-.8-1.5-1.9-1.9-3-.2-.5-.8-.8-1.3-.6-.5.2-.8.8-.6 1.3.5 1.4 1.3 2.7 2.4 3.7 2 2 4.5 2.9 7.1 2.9 2.6 0 5.1-1 7-2.9l3-2.8V18c0 .6.4 1 1 1s1-.4 1-1v-6c-.3 0-.3-.1-.3-.1z"></path></svg><svg width="24" height="22" viewBox="0 0 24 22" id="repeat" y="10567"><defs><path id="a" d="M1515.477 514.514c-1.232 2.532-3.395 4.441-6.088 5.377a10.878 10.878 0 0 1-3.577.604c-2.96 0-5.816-1.219-7.835-3.344a1.247 1.247 0 0 1 .068-1.788 1.287 1.287 0 0 1 1.794.066 8.264 8.264 0 0 0 5.974 2.55 8.29 8.29 0 0 0 2.73-.461c3.245-1.128 5.425-4.153 5.425-7.529 0-.907-.158-1.801-.469-2.66-1.15-3.18-4.24-5.316-7.692-5.316a8.25 8.25 0 0 0-2.72.461c-1.697.589-3.107 1.671-4.07 3.104l2.508-.872a1.276 1.276 0 0 1 1.623.762 1.26 1.26 0 0 1-.778 1.612l-5.358 1.864a1.285 1.285 0 0 1-.97-.05 1.265 1.265 0 0 1-.653-.71l-1.8-4.98a1.238 1.238 0 0 1-.076-.426c0-.533.343-1.01.854-1.186a1.284 1.284 0 0 1 1.621.764l.749 2.073c1.27-2.007 3.19-3.524 5.503-4.328 1.15-.401 2.35-.604 3.567-.604 4.526 0 8.582 2.806 10.095 6.984.412 1.142.62 2.326.62 3.52 0 1.567-.351 3.085-1.045 4.513z"></path></defs><use xlink:href="#a" transform="translate(-1493 -499)"></use></svg><svg viewBox="0 0 512 512" width="512" height="512" id="sad" y="10589"><path d="M375.71 356.744c-1.79-2.27-44.687-55.622-119.71-55.622s-117.92 53.351-119.71 55.622l31.42 24.756c.318-.404 32.458-40.378 88.29-40.378 55.147 0 87.024 38.807 88.354 40.458l-.064-.08 31.42-24.756z"></path><path d="M437.02 74.98C388.667 26.629 324.38 0 256 0S123.333 26.629 74.98 74.98C26.629 123.333 0 187.62 0 256s26.629 132.668 74.98 181.02C123.333 485.371 187.62 512 256 512s132.667-26.629 181.02-74.98C485.371 388.668 512 324.38 512 256s-26.629-132.667-74.98-181.02zM256 472c-119.103 0-216-96.897-216-216S136.897 40 256 40s216 96.897 216 216-96.897 216-216 216z"></path><circle cx="168" cy="180.12" r="32"></circle><circle cx="344" cy="180.12" r="32"></circle></svg><svg viewBox="0 0 512 512" width="512" height="512" id="search" y="11101"><path d="M225.474 0C101.151 0 0 101.151 0 225.474c0 124.33 101.151 225.474 225.474 225.474 124.33 0 225.474-101.144 225.474-225.474C450.948 101.151 349.804 0 225.474 0zm0 409.323c-101.373 0-183.848-82.475-183.848-183.848S124.101 41.626 225.474 41.626s183.848 82.475 183.848 183.848-82.475 183.849-183.848 183.849z"></path><path d="M505.902 476.472L386.574 357.144c-8.131-8.131-21.299-8.131-29.43 0-8.131 8.124-8.131 21.306 0 29.43l119.328 119.328A20.74 20.74 0 0 0 491.187 512a20.754 20.754 0 0 0 14.715-6.098c8.131-8.124 8.131-21.306 0-29.43z"></path></svg><svg viewBox="0 0 481.6 481.6" width="481.6" height="481.6" id="share" y="11613"><path d="M381.6 309.4c-27.7 0-52.4 13.2-68.2 33.6l-132.3-73.9c3.1-8.9 4.8-18.5 4.8-28.4 0-10-1.7-19.5-4.9-28.5l132.2-73.8c15.7 20.5 40.5 33.8 68.3 33.8 47.4 0 86.1-38.6 86.1-86.1S429 0 381.5 0s-86.1 38.6-86.1 86.1c0 10 1.7 19.6 4.9 28.5l-132.1 73.8c-15.7-20.6-40.5-33.8-68.3-33.8-47.4 0-86.1 38.6-86.1 86.1s38.7 86.1 86.2 86.1c27.8 0 52.6-13.3 68.4-33.9l132.2 73.9c-3.2 9-5 18.7-5 28.7 0 47.4 38.6 86.1 86.1 86.1s86.1-38.6 86.1-86.1-38.7-86.1-86.2-86.1zm0-282.3c32.6 0 59.1 26.5 59.1 59.1s-26.5 59.1-59.1 59.1-59.1-26.5-59.1-59.1 26.6-59.1 59.1-59.1zM100 299.8c-32.6 0-59.1-26.5-59.1-59.1s26.5-59.1 59.1-59.1 59.1 26.5 59.1 59.1-26.6 59.1-59.1 59.1zm281.6 154.7c-32.6 0-59.1-26.5-59.1-59.1s26.5-59.1 59.1-59.1 59.1 26.5 59.1 59.1-26.5 59.1-59.1 59.1z"></path></svg><svg height="512" viewBox="-3 0 512 512" width="512" id="shopping-cart" y="12095"><path d="M494.93 97.148c-9.493-10.843-23.024-16.816-38.098-16.816H92.402l-3.668-27.5C84.781 23.207 64.156 0 41.777 0H15C6.715 0 0 6.715 0 15s6.715 15 15 15h26.777c4.813 0 15.004 10.176 17.22 26.797l42.937 322.039c1.89 14.195 9.183 27.484 20.535 37.422 8.418 7.37 18.367 12.273 28.789 14.324a54.795 54.795 0 0 0-6.66 26.25c0 30.422 24.75 55.168 55.168 55.168s55.168-24.746 55.168-55.168a54.78 54.78 0 0 0-6.102-25.164h78.602a54.78 54.78 0 0 0-6.102 25.164c0 30.422 24.75 55.168 55.168 55.168s55.168-24.746 55.168-55.168a54.78 54.78 0 0 0-6.102-25.164h39.301c8.281 0 15-6.719 15-15 0-8.285-6.719-15-15-15h-302.59c-14.656 0-28.672-12.273-30.609-26.8l-3.137-23.536h116.746c.004 0 .008.004.012.004s.008-.004.016-.004h96.367c.004 0 .008.004.015.004.004 0 .004-.004.008-.004H424.7c14.32 0 28.457-5.473 39.809-15.406 11.351-9.938 18.644-23.23 20.535-37.426l21.516-161.367c1.992-14.942-2.137-29.14-11.63-39.985zM224.934 456.832c0 13.879-11.29 25.168-25.168 25.168-13.875 0-25.168-11.29-25.168-25.168 0-13.875 11.293-25.164 25.168-25.164 13.879 0 25.168 11.289 25.168 25.164zm176.734 0c0 13.879-11.29 25.168-25.168 25.168s-25.168-11.29-25.168-25.168c0-13.875 11.29-25.164 25.168-25.164s25.168 11.289 25.168 25.164zm70.687-339.922c3.715 4.242 5.301 10.012 4.465 16.254l-9.02 67.668H365.739l6.032-90.5h85.062c6.3 0 11.813 2.336 15.523 6.578zm-213.02 204.422l-6.034-90.5h80.37l-6.034 90.5zm-8.034-120.5l-6.031-90.5h96.433l-6.031 90.5zm-36.098-90.5l6.031 90.5h-112.77l-12.066-90.5zm-102.738 120.5h110.77l6.035 90.5H124.53zm312.234 90.5h-66.996l6.035-90.5h100.063l-8.492 63.703c-1.938 14.527-15.957 26.797-30.61 26.797zm0 0"></path></svg><svg viewBox="0 0 512 512" width="512" height="512" id="smile" y="12607"><path d="M437.02 74.98C388.667 26.629 324.38 0 256 0S123.333 26.629 74.98 74.98C26.629 123.333 0 187.62 0 256s26.629 132.668 74.98 181.02C123.333 485.371 187.62 512 256 512s132.667-26.629 181.02-74.98C485.371 388.668 512 324.38 512 256s-26.629-132.667-74.98-181.02zM256 472c-119.103 0-216-96.897-216-216S136.897 40 256 40s216 96.897 216 216-96.897 216-216 216z"></path><path d="M368.993 285.776c-.072.214-7.298 21.626-25.02 42.393C321.419 354.599 292.628 368 258.4 368c-34.475 0-64.195-13.561-88.333-40.303-18.92-20.962-27.272-42.54-27.33-42.691l-37.475 13.99c.42 1.122 10.533 27.792 34.013 54.273C171.022 389.074 212.215 408 258.4 408c46.412 0 86.904-19.076 117.099-55.166 22.318-26.675 31.165-53.55 31.531-54.681l-38.037-12.377z"></path><circle cx="168" cy="180.12" r="32"></circle><circle cx="344" cy="180.12" r="32"></circle></svg><svg width="43" height="43" viewBox="0 0 43 43" id="smile-good" y="13119"><defs><path id="a" d="M928 1166c0 5.34-2.08 10.36-5.86 14.14A19.87 19.87 0 0 1 908 1186a19.87 19.87 0 0 1-14.14-5.86A19.87 19.87 0 0 1 888 1166c0-5.34 2.08-10.37 5.86-14.14A19.87 19.87 0 0 1 908 1146c5.34 0 10.36 2.08 14.14 5.86A19.87 19.87 0 0 1 928 1166zm-2.47 0c0-9.66-7.87-17.53-17.53-17.53a17.55 17.55 0 0 0-17.53 17.53c0 9.66 7.87 17.52 17.53 17.52s17.53-7.86 17.53-17.52zm-14.15-3.8a2.89 2.89 0 1 1 5.78.01 2.89 2.89 0 0 1-5.78 0zm-12.54 0a2.89 2.89 0 1 1 5.78.01 2.89 2.89 0 0 1-5.78 0zm17.87 7l2.32.86a11.8 11.8 0 0 1-11.03 7.7c-4.9 0-9.33-3.1-11.03-7.7l2.32-.86a9.32 9.32 0 0 0 8.71 6.08 9.32 9.32 0 0 0 8.71-6.08z"></path></defs><use xlink:href="#a" transform="translate(-886 -1144)"></use></svg><svg viewBox="0 0 512 512" width="512" height="512" id="soc-facebook" y="13162"><path d="M134.941 272.691h56.123v231.051a8.256 8.256 0 0 0 8.258 8.258h95.159a8.256 8.256 0 0 0 8.258-8.258V273.78h64.519a8.26 8.26 0 0 0 8.204-7.315l9.799-85.061a8.259 8.259 0 0 0-8.202-9.203h-74.316V118.88c0-16.073 8.654-24.224 25.726-24.224h48.59a8.258 8.258 0 0 0 8.258-8.258V8.319a8.256 8.256 0 0 0-8.258-8.258h-66.965A65.863 65.863 0 0 0 307.027 0c-11.619 0-52.006 2.281-83.909 31.63-35.348 32.524-30.434 71.465-29.26 78.217v62.352H134.94a8.256 8.256 0 0 0-8.258 8.258v83.975a8.26 8.26 0 0 0 8.259 8.259z"></path></svg><svg width="12.281" height="10.243" viewBox="0 0 12.281 10.243" id="soc-fl" y="13674"><path data-name="Контур 11132" d="M7.134 10.243H4.427v-7.88a7.9 7.9 0 0 0-1.176.013.832.832 0 0 0-.692.732.864.864 0 0 0 .4.862.36.36 0 0 1 .145.484c-.207.653-.387 1.313-.587 2.014-.181-.067-.346-.121-.5-.19A3.1 3.1 0 0 1 .156 4.267 3.13 3.13 0 0 1 2.295.199a4.743 4.743 0 0 1 1.362-.19C6.443-.009 9.226 0 12.012 0c.085 0 .17.009.27.013v2.4H7.197v1.98h3.926v2.406H7.174v3.4l-.04.044z"></path></svg><svg width="430.117" height="430.117" viewBox="0 0 430.117 430.117" id="soc-in" y="13685"><path d="M430.117 261.543V420.56h-92.188V272.193c0-37.271-13.334-62.707-46.703-62.707-25.473 0-40.632 17.142-47.301 33.724-2.432 5.928-3.058 14.179-3.058 22.477V420.56h-92.219s1.242-251.285 0-277.32h92.21v39.309c-.187.294-.43.611-.606.896h.606v-.896c12.251-18.869 34.13-45.824 83.102-45.824 60.673-.001 106.157 39.636 106.157 124.818zM52.183 9.558C20.635 9.558 0 30.251 0 57.463c0 26.619 20.038 47.94 50.959 47.94h.616c32.159 0 52.159-21.317 52.159-47.94-.606-27.212-20-47.905-51.551-47.905zM5.477 420.56h92.184V143.24H5.477v277.32z"></path></svg><svg width="438.536" height="438.536" viewBox="0 0 438.536 438.536" id="soc-instagram" y="14116"><path d="M421.981 16.562C410.941 5.519 397.711 0 382.298 0H56.248C40.83 0 27.604 5.521 16.561 16.562 5.52 27.6.001 40.828.001 56.243V382.29c0 15.413 5.518 28.644 16.56 39.683 11.043 11.04 24.272 16.563 39.687 16.563h326.046c15.41 0 28.644-5.523 39.684-16.563 11.043-11.039 16.557-24.27 16.557-39.683V56.243c-.001-15.418-5.514-28.639-16.554-39.681zM157.462 158.025c17.224-16.652 37.924-24.982 62.097-24.982 24.36 0 45.153 8.33 62.381 24.982 17.228 16.655 25.837 36.785 25.837 60.386 0 23.598-8.609 43.729-25.837 60.379-17.228 16.659-38.014 24.988-62.381 24.988-24.172 0-44.87-8.336-62.097-24.988-17.228-16.652-25.841-36.781-25.841-60.379 0-23.601 8.613-43.73 25.841-60.386zm231.403 212.564c0 4.945-1.718 9.083-5.141 12.416-3.433 3.33-7.519 4.996-12.282 4.996h-305.2c-4.948 0-9.091-1.666-12.419-4.996-3.333-3.326-4.998-7.471-4.998-12.416V185.575H89.08c-3.805 11.993-5.708 24.462-5.708 37.402 0 36.553 13.322 67.715 39.969 93.511 26.65 25.786 58.721 38.685 96.217 38.685 24.744 0 47.583-5.903 68.527-17.703 20.937-11.807 37.486-27.839 49.676-48.112 12.183-20.272 18.274-42.4 18.274-66.38 0-12.94-1.91-25.406-5.715-37.402h38.547V370.59h-.002zm0-254.963c0 5.52-1.903 10.184-5.716 13.99-3.805 3.809-8.466 5.711-13.989 5.711h-49.676c-5.517 0-10.185-1.903-13.99-5.711-3.806-3.806-5.708-8.47-5.708-13.99V68.522c0-5.33 1.902-9.945 5.708-13.848 3.806-3.901 8.474-5.854 13.99-5.854h49.676c5.523 0 10.185 1.952 13.989 5.854 3.812 3.903 5.716 8.518 5.716 13.848v47.104z"></path></svg><svg width="95.481" height="95.481" viewBox="0 0 95.481 95.481" id="soc-ok" y="14555"><path d="M43.041 67.254c-7.402-.772-14.076-2.595-19.79-7.064-.709-.556-1.441-1.092-2.088-1.713-2.501-2.402-2.753-5.153-.774-7.988 1.693-2.426 4.535-3.075 7.489-1.682.572.27 1.117.607 1.639.969 10.649 7.317 25.278 7.519 35.967.329 1.059-.812 2.191-1.474 3.503-1.812 2.551-.655 4.93.282 6.299 2.514 1.564 2.549 1.544 5.037-.383 7.016-2.956 3.034-6.511 5.229-10.461 6.761-3.735 1.448-7.826 2.177-11.875 2.661.611.665.899.992 1.281 1.376 5.498 5.524 11.02 11.025 16.5 16.566 1.867 1.888 2.257 4.229 1.229 6.425-1.124 2.4-3.64 3.979-6.107 3.81-1.563-.108-2.782-.886-3.865-1.977-4.149-4.175-8.376-8.273-12.441-12.527-1.183-1.237-1.752-1.003-2.796.071-4.174 4.297-8.416 8.528-12.683 12.735-1.916 1.889-4.196 2.229-6.418 1.15-2.362-1.145-3.865-3.556-3.749-5.979.08-1.639.886-2.891 2.011-4.014 5.441-5.433 10.867-10.88 16.295-16.322.359-.362.694-.746 1.217-1.305z"></path><path d="M47.55 48.329c-13.205-.045-24.033-10.992-23.956-24.218C23.67 10.739 34.505-.037 47.84 0c13.362.036 24.087 10.967 24.02 24.478-.068 13.199-10.971 23.897-24.31 23.851zm12.001-24.186c-.023-6.567-5.253-11.795-11.807-11.801-6.609-.007-11.886 5.316-11.835 11.943.049 6.542 5.324 11.733 11.896 11.709 6.552-.023 11.768-5.285 11.746-11.851z"></path></svg><svg viewBox="0 0 300 300" width="300" height="300" id="soc-telegram" y="14651"><path d="M5.299 144.645l69.126 25.8 26.756 86.047c1.712 5.511 8.451 7.548 12.924 3.891l38.532-31.412a11.496 11.496 0 0 1 14.013-.391l69.498 50.457c4.785 3.478 11.564.856 12.764-4.926L299.823 29.22c1.31-6.316-4.896-11.585-10.91-9.259L5.218 129.402c-7.001 2.7-6.94 12.612.081 15.243zm91.57 12.066l135.098-83.207c2.428-1.491 4.926 1.792 2.841 3.726L123.313 180.87a23.112 23.112 0 0 0-7.163 13.829l-3.798 28.146c-.503 3.758-5.782 4.131-6.819.494l-14.607-51.325c-1.673-5.854.765-12.107 5.943-15.303z"></path></svg><svg viewBox="0 0 410.155 410.155" width="410.155" height="410.155" id="soc-twitter" y="14951"><path d="M403.632 74.18a162.414 162.414 0 0 1-28.28 9.537 88.177 88.177 0 0 0 23.275-37.067c1.295-4.051-3.105-7.554-6.763-5.385a163.188 163.188 0 0 1-43.235 17.862 11.02 11.02 0 0 1-2.702.336c-2.766 0-5.455-1.027-7.57-2.891-16.156-14.239-36.935-22.081-58.508-22.081-9.335 0-18.76 1.455-28.014 4.325-28.672 8.893-50.795 32.544-57.736 61.724-2.604 10.945-3.309 21.9-2.097 32.56a3.166 3.166 0 0 1-.797 2.481 3.278 3.278 0 0 1-2.753 1.091c-62.762-5.831-119.358-36.068-159.363-85.14-2.04-2.503-5.952-2.196-7.578.593-7.834 13.44-11.974 28.812-11.974 44.454 0 23.972 9.631 46.563 26.36 63.032a79.24 79.24 0 0 1-20.169-7.808c-3.06-1.7-6.825.485-6.868 3.985-.438 35.612 20.412 67.3 51.646 81.569a79.567 79.567 0 0 1-16.786-1.399c-3.446-.658-6.341 2.611-5.271 5.952 10.138 31.651 37.39 54.981 70.002 60.278-27.066 18.169-58.585 27.753-91.39 27.753l-10.227-.006c-3.151 0-5.816 2.054-6.619 5.106-.791 3.006.666 6.177 3.353 7.74 36.966 21.513 79.131 32.883 121.955 32.883 37.485 0 72.549-7.439 104.219-22.109 29.033-13.449 54.689-32.674 76.255-57.141 20.09-22.792 35.8-49.103 46.692-78.201 10.383-27.737 15.871-57.333 15.871-85.589v-1.346c-.001-4.537 2.051-8.806 5.631-11.712a174.776 174.776 0 0 0 35.16-38.591c2.573-3.849-1.485-8.673-5.719-6.795z"></path></svg><svg viewBox="0 0 512 512" width="512" height="512" id="soc-vk" y="15362"><path d="M440.649 295.361c16.984 16.582 34.909 32.182 50.142 50.436 6.729 8.112 13.099 16.482 17.973 25.896 6.906 13.382.651 28.108-11.348 28.907l-74.59-.034c-19.238 1.596-34.585-6.148-47.489-19.302-10.327-10.519-19.891-21.714-29.821-32.588-4.071-4.444-8.332-8.626-13.422-11.932-10.182-6.609-19.021-4.586-24.84 6.034-5.926 10.802-7.271 22.762-7.853 34.8-.799 17.564-6.108 22.182-23.751 22.986-37.705 1.778-73.489-3.926-106.732-22.947-29.308-16.768-52.034-40.441-71.816-67.24-38.513-52.183-68.008-109.525-94.516-168.473-5.967-13.281-1.603-20.41 13.051-20.663 24.333-.473 48.663-.439 73.025-.034 9.89.145 16.437 5.817 20.256 15.16 13.165 32.371 29.274 63.169 49.494 91.716 5.385 7.6 10.876 15.201 18.694 20.55 8.65 5.923 15.236 3.96 19.305-5.676 2.582-6.11 3.713-12.691 4.295-19.234 1.928-22.513 2.182-44.988-1.199-67.422-2.076-14.001-9.962-23.065-23.933-25.714-7.129-1.351-6.068-4.004-2.616-8.073 5.995-7.018 11.634-11.387 22.875-11.387h84.298c13.271 2.619 16.218 8.581 18.035 21.934l.072 93.637c-.145 5.169 2.582 20.51 11.893 23.931 7.452 2.436 12.364-3.526 16.836-8.251 20.183-21.421 34.588-46.737 47.457-72.951 5.711-11.527 10.622-23.497 15.381-35.458 3.526-8.875 9.059-13.242 19.056-13.049l81.132.072c2.406 0 4.84.035 7.17.434 13.671 2.33 17.418 8.211 13.195 21.561-6.653 20.945-19.598 38.4-32.255 55.935-13.53 18.721-28.001 36.802-41.418 55.634-12.328 17.2-11.349 25.868 3.964 40.805z"></path></svg><svg viewBox="0 0 512 512" width="512" height="512" id="soc-whatsapp" y="15874"><path d="M256.064 0h-.128C114.784 0 0 114.816 0 256c0 56 18.048 107.904 48.736 150.048l-31.904 95.104 98.4-31.456C155.712 496.512 204 512 256.064 512 397.216 512 512 397.152 512 256S397.216 0 256.064 0zm148.96 361.504c-6.176 17.44-30.688 31.904-50.24 36.128-13.376 2.848-30.848 5.12-89.664-19.264-75.232-31.168-123.68-107.616-127.456-112.576-3.616-4.96-30.4-40.48-30.4-77.216s18.656-54.624 26.176-62.304c6.176-6.304 16.384-9.184 26.176-9.184 3.168 0 6.016.16 8.576.288 7.52.32 11.296.768 16.256 12.64 6.176 14.88 21.216 51.616 23.008 55.392 1.824 3.776 3.648 8.896 1.088 13.856-2.4 5.12-4.512 7.392-8.288 11.744-3.776 4.352-7.36 7.68-11.136 12.352-3.456 4.064-7.36 8.416-3.008 15.936 4.352 7.36 19.392 31.904 41.536 51.616 28.576 25.44 51.744 33.568 60.032 37.024 6.176 2.56 13.536 1.952 18.048-2.848 5.728-6.176 12.8-16.416 20-26.496 5.12-7.232 11.584-8.128 18.368-5.568 6.912 2.4 43.488 20.48 51.008 24.224 7.52 3.776 12.48 5.568 14.304 8.736 1.792 3.168 1.792 18.048-4.384 35.52z"></path></svg><svg viewBox="0 0 512 512" width="512" height="512" id="soc-youtube" y="16386"><path d="M490.24 113.92c-13.888-24.704-28.96-29.248-59.648-30.976C399.936 80.864 322.848 80 256.064 80c-66.912 0-144.032.864-174.656 2.912-30.624 1.76-45.728 6.272-59.744 31.008C7.36 138.592 0 181.088 0 255.904v.256c0 74.496 7.36 117.312 21.664 141.728 14.016 24.704 29.088 29.184 59.712 31.264C112.032 430.944 189.152 432 256.064 432c66.784 0 143.872-1.056 174.56-2.816 30.688-2.08 45.76-6.56 59.648-31.264C504.704 373.504 512 330.688 512 256.192v-.256c0-74.848-7.296-117.344-21.76-142.016zM192 352V160l160 96-160 96z"></path></svg><svg width="16" height="16" viewBox="0 0 16 16" id="star" y="16898"><path d="M9.182.751l1.427 3.04c.185.395.555.67.985.737l3.296.503c1.05.16 1.48 1.442.737 2.203l-2.466 2.528c-.289.296-.42.713-.354 1.122l.57 3.499c.176 1.076-.966 1.88-1.92 1.353l-2.825-1.562a1.306 1.306 0 0 0-1.264 0l-2.825 1.562c-.955.527-2.096-.277-1.92-1.353l.57-3.5a1.307 1.307 0 0 0-.354-1.121L.372 7.234c-.742-.76-.313-2.042.738-2.203l3.296-.503c.43-.066.8-.342.984-.736L6.818.752c.47-1.002 1.894-1.002 2.364 0z"></path></svg><svg height="512" viewBox="0 0 512 512.00051" width="512" id="tick--color" y="16914"><path d="M504.34 187.367v269.344c0 13.816-5.88 26.254-15.266 34.965-8.515 7.894-19.91 12.719-32.43 12.719H55.294c-12.52 0-23.914-4.825-32.418-12.711-9.39-8.72-15.27-21.157-15.27-34.973V187.367zm0 0" fill="#fec970"></path><path d="M258 504.395H55.293c-26.336 0-47.688-21.348-47.688-47.684V185.766l52.97 45.71 3.304 2.747v135.933c0 46.246 18.66 90.078 61.207 108.223C164.34 495.12 234.18 504.395 258 504.395zm0 0" fill="#fba028"></path><path d="M504.34 187.367L313.406 28.387C280.13.68 231.812.68 198.536 28.387L7.601 187.367h.003l56.274 46.856 134.656 112.12c33.281 27.716 81.598 27.716 114.867 0l134.668-112.12z" fill="#fba028"></path><path d="M448.07 88.152v146.07L313.402 346.345c-33.27 27.715-81.586 27.715-114.867 0L63.88 234.223V88.153c0-30.454 24.695-55.15 55.16-55.15h273.883c30.46 0 55.148 24.696 55.148 55.15zm0 0" fill="#bfdadd"></path><path d="M448.07 88.152V200.77L313.402 312.89c-33.27 27.715-81.586 27.715-114.867 0L63.88 200.77V88.152c0-30.453 24.695-55.148 55.16-55.148h273.883c30.46 0 55.148 24.695 55.148 55.148zm0 0" fill="#e4f5f7"></path><path d="M494.203 114.055c0 58.507-47.43 105.937-105.937 105.937s-105.938-47.43-105.938-105.937c0-58.512 47.43-105.942 105.938-105.942s105.937 47.43 105.937 105.942zm0 0" fill="#26bf64"></path><path d="M494.2 114.05c0 51.485-36.716 94.388-85.395 103.95-48.684-9.55-85.41-52.465-85.41-103.95 0-51.48 36.726-94.39 85.41-103.94 48.68 9.558 85.394 52.46 85.394 103.94zm0 0" fill="#49d685"></path><path d="M453.18 471.688a7.57 7.57 0 0 0 4.86 1.761 7.583 7.583 0 0 0 5.847-2.742 7.599 7.599 0 0 0-.98-10.707L341.675 359.062a7.604 7.604 0 1 0-9.73 11.688zm-399.274 1.757a7.575 7.575 0 0 0 4.864-1.757l121.234-100.942a7.601 7.601 0 0 0 .976-10.707 7.602 7.602 0 0 0-10.707-.977L49.043 460a7.599 7.599 0 0 0-.98 10.707 7.572 7.572 0 0 0 5.843 2.738zm90.559-247.613h160.172a7.603 7.603 0 0 0 7.601-7.605 7.6 7.6 0 0 0-7.601-7.602H144.465a7.604 7.604 0 1 0 0 15.207zm223.019 28.949h-223.02a7.603 7.603 0 1 0 0 15.207h223.02c4.204 0 7.606-3.402 7.606-7.601s-3.406-7.606-7.606-7.606zM144.465 137.516h111.512a7.604 7.604 0 0 0 0-15.207H144.465a7.606 7.606 0 0 0-7.606 7.601c0 4.2 3.407 7.606 7.606 7.606zm67.152 36.554c0 4.2 3.406 7.602 7.606 7.602h55a7.6 7.6 0 0 0 7.601-7.602 7.603 7.603 0 0 0-7.601-7.605h-55a7.607 7.607 0 0 0-7.606 7.605zm-67.152 7.602h49.41a7.604 7.604 0 1 0 0-15.207h-49.41a7.604 7.604 0 0 0 0 15.207zM426.39 62.188l-40.75 95.085-36.148-43.046a7.603 7.603 0 1 0-11.64 9.78l44.09 52.505a7.603 7.603 0 0 0 6.933 2.633 7.6 7.6 0 0 0 5.875-4.528l45.617-106.441a7.603 7.603 0 1 0-13.976-5.989zm0 0"></path><path d="M505.402 178.355l-15.816-13.167c7.828-15.477 12.219-32.891 12.219-51.137 0-20.633-5.594-40.84-16.168-58.43a7.606 7.606 0 0 0-13.035 7.836c9.156 15.223 13.996 32.719 13.996 50.59 0 46.89-33.332 87.473-79.262 96.488a98.905 98.905 0 0 1-19.07 1.856c-54.223 0-98.336-44.118-98.336-98.344 0-54.219 44.113-98.332 98.336-98.332 6.406 0 12.82.625 19.07 1.855 17.8 3.496 34.285 11.887 47.676 24.274a7.61 7.61 0 0 0 10.746-.422c2.851-3.082 2.66-7.895-.422-10.746-15.461-14.297-34.504-23.988-55.063-28.028a114.37 114.37 0 0 0-22.007-2.14c-25.778 0-49.567 8.64-68.649 23.168l-1.347-1.125c-36.094-30.067-88.497-30.067-124.602 0l-3.418 2.851h-71.21c-34.606 0-62.763 28.149-62.763 62.75v49.305L4.836 180.285c-.152.063-.305.125-.457.2a7.596 7.596 0 0 0-4.375 6.882V396.48c0 4.2 3.402 7.602 7.601 7.602s7.606-3.402 7.606-7.602V203.594l178.46 148.593c18.052 15.032 40.177 22.551 62.302 22.547 22.125 0 44.25-7.515 62.293-22.546l178.468-148.594v253.113c0 22.106-17.98 40.086-40.086 40.086H55.293c-22.106 0-40.086-17.98-40.086-40.086v-29.812a7.604 7.604 0 0 0-15.207 0v29.812C0 487.195 24.805 512 55.293 512h401.355c30.489 0 55.293-24.805 55.293-55.293V187.563c.094-3.684-1.046-4.633-6.539-9.208zM295.582 25.402h-79.223c24.621-13.574 54.61-13.574 79.223 0zM56.277 157.242V218l-36.484-30.379zm252.258 183.262c-30.453 25.367-74.668 25.367-105.133-.004L71.484 230.66V88.152c0-26.218 21.332-47.547 47.555-47.547H301.75c-16.844 19.813-27.023 45.461-27.023 73.446 0 62.61 50.933 113.547 113.539 113.547 7.39 0 14.796-.72 22.004-2.141a112.384 112.384 0 0 0 30.195-10.578v15.777zm147.137-122.508v-12.601a114.146 114.146 0 0 0 26.062-26.957c3.325 2.765 7.348 6.117 10.727 8.93zm0 0"></path></svg><svg width="20" height="20" viewBox="0 0 20 20" id="time" y="17426"><g data-name="Сгруппировать 4492" stroke="#b4b4b4" stroke-width="1.4"><g data-name="Эллипс 654"><circle cx="10" cy="10" r="10" stroke="none"></circle><circle cx="10" cy="10" r="9.3"></circle></g><path data-name="Контур 4985" d="M6.189 6.1L10 11l4.224-1.332" stroke-linecap="round" stroke-linejoin="round"></path></g></svg><svg width="96" height="95.428" viewBox="0 0 96 95.428" id="unlike" y="17446"><path data-name="Path 84" d="M2.6 44.201a10.194 10.194 0 0 0 7.6 17H30a65.927 65.927 0 0 0-2.8 17.227v3.4a13.617 13.617 0 0 0 13.6 13.6h3.4a3.4 3.4 0 0 0 3.3-2.575l1.852-7.41c2.6-10.377 10.835-21.826 19.362-23.907a10.214 10.214 0 0 0 9.488 6.465H92.6a3.4 3.4 0 0 0 3.4-3.4v-61.2a3.4 3.4 0 0 0-3.4-3.4H78.2a10.211 10.211 0 0 0-9.207 5.814L57.311 1.921A37.318 37.318 0 0 0 45.483.001H17a10.2 10.2 0 0 0-9.484 13.958 10.194 10.194 0 0 0-4.912 16.642 10.18 10.18 0 0 0 0 13.6zm72.2-34a3.4 3.4 0 0 1 3.4-3.4h11v54.4h-11a3.4 3.4 0 0 1-3.4-3.4zM17 40.801h-6.8a3.4 3.4 0 1 1 0-6.8H17a3.4 3.4 0 0 0 0-6.8h-6.8a3.4 3.4 0 1 1 0-6.8H17a3.4 3.4 0 1 0 0-6.8 3.4 3.4 0 0 1 0-6.8h28.483a30.534 30.534 0 0 1 9.679 1.571L68 12.651v42.072c-5.333 1.013-10.554 4.391-15.266 9.919a49.611 49.611 0 0 0-9.98 19.151l-1.208 4.835H40.8a6.808 6.808 0 0 1-6.8-6.8v-3.4c0-4.565 1.428-13.321 3.255-17.229H44.2a3.4 3.4 0 0 0 0-6.8h-34a3.4 3.4 0 1 1 0-6.8H17a3.4 3.4 0 0 0 0-6.8z"></path></svg><svg viewBox="0 0 512.001 512.001" width="512.001" height="512.001" id="upload" y="17542"><path d="M405.967 195.112c-1.069-78.061-64.902-141.239-143.213-141.239-34.835 0-68.396 12.672-94.498 35.682-23.296 20.535-39.232 47.977-45.543 78.106-.461-.005-.918-.009-1.374-.009C54.434 167.652 0 222.085 0 288.991S54.434 410.33 121.34 410.33h84.743c6.029 0 10.919-4.888 10.919-10.919 0-6.031-4.89-10.919-10.919-10.919H121.34c-54.866 0-99.502-44.636-99.502-99.501s44.636-99.501 99.502-99.501c2.923 0 6.013.157 9.448.48 5.822.545 11.049-3.596 11.842-9.396 3.932-28.82 18.161-55.327 40.067-74.638 22.111-19.492 50.542-30.226 80.056-30.226 66.935 0 121.389 54.455 121.389 121.389 0 2.41-.179 4.894-.368 7.524l-.081 1.118a10.915 10.915 0 0 0 3.287 8.604 10.914 10.914 0 0 0 8.697 3.03 87.102 87.102 0 0 1 8.708-.44c47.297 0 85.778 38.48 85.778 85.778 0 47.297-38.48 85.777-85.778 85.777h-89.111c-6.029 0-10.919 4.888-10.919 10.919 0 6.031 4.89 10.919 10.919 10.919h89.111c59.339 0 107.616-48.275 107.616-107.615-.001-58.807-47.421-106.752-106.034-107.601z"></path><path d="M262.755 105.192c-45.658 0-84.742 34.121-90.914 79.367-.815 5.975 3.369 11.48 9.343 12.295.501.068.998.102 1.489.102 5.375 0 10.059-3.97 10.804-9.444 4.703-34.48 34.486-60.482 69.277-60.482 6.031 0 10.919-4.888 10.919-10.919.001-6.03-4.888-10.919-10.918-10.919zm49.655 214.86l-39.718-35.48c-6.847-6.12-17.177-6.119-24.027-.001l-39.718 35.482c-4.498 4.017-4.886 10.92-.869 15.418 4.017 4.496 10.919 4.887 15.418.869l26.264-23.462v134.331c0 6.031 4.888 10.919 10.919 10.919 6.03 0 10.919-4.888 10.919-10.919V312.876l26.265 23.463a10.873 10.873 0 0 0 7.27 2.776 10.89 10.89 0 0 0 8.148-3.645c4.015-4.498 3.626-11.4-.871-15.418z"></path></svg><svg width="22" height="18.158" viewBox="0 0 22 18.158" id="user" y="18055"><path data-name="Контур 11098" d="M1.1 18.158a1.1 1.1 0 0 1-.587-2.031l4.715-2.972a3.147 3.147 0 0 1 3.2-.187 8.149 8.149 0 0 0 5.363-.035 3.078 3.078 0 0 1 3.094.122l4.625 3.088a1.1 1.1 0 1 1-1.221 1.83l-4.613-3.078a.857.857 0 0 0-.865-.014 10.168 10.168 0 0 1-7.34.069 1 1 0 0 0-1.021.034l-4.764 3a1.1 1.1 0 0 1-.586.174z"></path><path data-name="Контур 11099" d="M10.944 11a5.5 5.5 0 1 1 5.5-5.5 5.506 5.506 0 0 1-5.5 5.5zm0-8.8a3.3 3.3 0 1 0 3.3 3.3 3.3 3.3 0 0 0-3.3-3.3z"></path></svg></svg>