<svg xmlns="http://www.w3.org/2000/svg" width="22" height="18.158" viewBox="0 0 22 18.158">
  <g id="icon" transform="translate(-26 -385)">
    <path id="&#x41A;&#x43E;&#x43D;&#x442;&#x443;&#x440;_11098" data-name="&#x41A;&#x43E;&#x43D;&#x442;&#x443;&#x440; 11098" d="M27.1,402.015a1.1,1.1,0,0,1-.587-2.031l4.715-2.972a3.147,3.147,0,0,1,3.2-.187,8.149,8.149,0,0,0,5.363-.035,3.078,3.078,0,0,1,3.094.122L47.51,400a1.1,1.1,0,1,1-1.221,1.83l-4.613-3.078a.857.857,0,0,0-.865-.014,10.168,10.168,0,0,1-7.34.069,1,1,0,0,0-1.021.034l-4.764,3A1.1,1.1,0,0,1,27.1,402.015Z" transform="translate(0 1.143)"/>
    <path id="&#x41A;&#x43E;&#x43D;&#x442;&#x443;&#x440;_11099" data-name="&#x41A;&#x43E;&#x43D;&#x442;&#x443;&#x440; 11099" d="M36.449,396a5.5,5.5,0,1,1,5.5-5.5A5.506,5.506,0,0,1,36.449,396Zm0-8.8a3.3,3.3,0,1,0,3.3,3.3A3.3,3.3,0,0,0,36.449,387.2Z" transform="translate(0.495 0)"/>
  </g>
</svg>
